<?xml version="1.0" encoding="UTF-8"?>
<svg xmlns="http://www.w3.org/2000/svg" version="1.1" viewBox="0 0 500 500">
  <defs>
    <style>
      .cls-1 {
        fill: #fbd2b0;
      }

      .cls-2 {
        fill: #fcedd5;
      }

      .cls-3 {
        fill: #563769;
      }

      .cls-4 {
        fill: #c0f6f1;
      }

      .cls-5 {
        fill: #c4abef;
      }

      .cls-6 {
        fill: #ccfdde;
      }

      .cls-7 {
        fill: #f7bda2;
      }

      .cls-8 {
        fill: #b7d9fd;
      }
    </style>
  </defs>
  <!-- Generator: Adobe Illustrator 28.7.3, SVG Export Plug-In . SVG Version: 1.2.0 Build 164)  -->
  <g>
    <g id="Layer_1">
      <g>
        <path class="cls-1" d="M373.7,130.3c-2.04,0-4.19.72-6.39,1.94-8.03,14.83-24.44,26.37-35.62,39.31-.7.06-1.38.1-2.02.11-3.28,9.09,4.53,18.43,13.93,18.43,4.29,0,8.92-1.95,12.97-6.76,1.25-1.29,3.1-2.76,5.29-4.4,3.51-2.88,7.28-5.66,10.99-8.22,12.57-10.02,24.14-23.36,6.15-38.43-1.65-1.38-3.43-1.99-5.31-1.99"/>
        <path class="cls-2" d="M300.98,153.87h-.02s0,0,0,0h.01M314.75,96.97c-7.76,12.98-15.97,31.82-21.73,45.96-4.98,7.09,6.29,15.53,14.36,15.53,2.22,0,4.19-.64,5.52-2.11,3.11-5.31,12.9-16.58,16.4-22.29.09-.14.17-.29.26-.43.34-.63.84-1.44,1.44-2.39,1.95-3.21,3.6-5.92,4.52-7.75.09-.18.18-.36.28-.54,4.87-10.1,6.48-23.22-21.05-25.99"/>
        <path class="cls-2" d="M266.12,84.44l-.13-.24.17.2-.05.03M262.27,81.7c21.6,22.68,17.72,43.38-6.26,63.91,5.6.5,15.85,3.66,24.17,3.66,6.51,0,11.84-1.93,12.84-8.58,3.92-11.02,12.34-31.3,16.26-42.4,8.98-18.41-35.46-14.27-47-16.59"/>
        <path class="cls-8" d="M108.79,154.65c-1.19,0-2.34.28-3.42.91-13.56,16.49-14.97,29.73-2.68,38.7,13.74.69,22.9,6.98,28.87,13.73,1.36.64,2.73,1.26,4.12,1.86.41.01.81.02,1.2.02,16.63,0,17.04-13.13,4.68-21.69-1.27-2.54-2.1-4.4-2.62-5.75-12.89-6.96-25.47-18.64-28.17-27.54-.67-.16-1.34-.24-1.99-.24"/>
        <path class="cls-4" d="M153.06,114.58c-1.27,0-2.66.28-4.21.86-5.96,2.24-23.53,9.03-16.94,19.3,1.82,2.84,4.33,6.22,7.27,9.75,1.32,1.42,2.6,2.91,3.83,4.4,3.93,2.61,9.65,7.83,14.6,13.64,6.22,4.74,12.46,8,17.63,8s9.16-3.19,11.08-11.3c-19.85-24.05-22.28-44.65-33.26-44.65"/>
        <path class="cls-5" d="M68.58,237.48h0s0,0,0,0c0,0,0,0,0,0M141.57,225.38h0s0,0,0,0c0,0,0,0,0,0M82.01,198.63c-.06.12-.14.25-.24.38l.51-.28c-.09-.03-.18-.07-.27-.11M75.72,196.88c-.38,0-.76.03-1.14.1-.12.02-.22.1-.27.21-.1.2-.2.48-.33.48,0,0,0,0-.01,0-.14.1-.18.14-.13.14.15,0,1.03-.36,2.34-.91-.15,0-.31-.01-.46-.01M87.08,196.15l-4.79,2.59c.42.16.84.31,1.25.44l.07.03c.93.5,1.09.62,1.01.62-.03,0-.11-.03-.19-.05-.08-.03-.15-.05-.17-.05-.04,0,.15.11,1.06.56,0,0,0,0,0,0,.06,0,.79-1.87,1.77-4.14M88.46,195.4c-.38.08-.77.16-1.16.24-.08.17-.15.34-.22.51l1.38-.75M100.17,194.19c-2.52,0-5.19.18-8.02.58-6.09,11.2-23.17,42.42-23.57,42.7l52.75-8.74c-2.32.16-4.69.34-7.08.53-5.78.45-11.68.91-17.2.91-2.89,0-5.67-.12-8.27-.44-.27-.03-.41-.33-.27-.56l1.53-2.5c.08-.12.07-.28,0-.4l35.64,1.74,15.91-2.64c-.14,0-2.28-7.8-8.49-15.59-.48-.6-.98-1.2-1.51-1.8-5.96-6.75-15.13-13.03-28.87-13.73-.83-.04-1.67-.06-2.53-.06M89.26,191.54c-1.94.7-4.23,1.61-6.43,2.53-2.53,1.05-4.95,2.1-6.64,2.82.85.05,1.7.25,2.55.51-1.31.22-2.79.6-4.02.99-1.88.58-3.22,1.17-2.62,1.17.55,0,2.69-.48,7.48-1.87.83.3,1.65.64,2.44.95.47-.9,0-1.3-.94-1.39.05-.02.11-.03.16-.05,2.09-.62,4.12-1.14,6.07-1.56.21-.47.42-.95.65-1.43.42-.92.87-1.83,1.31-2.66M93.74,190.34c-.17,0-.38.02-.63.06.06.65.1,1.45.09,2.43l-4.75,2.57c1.26-.25,2.49-.46,3.69-.62,1.31-2.41,2.11-3.89,2.13-3.94.13-.34-.08-.49-.54-.49M92.08,188.12c-.75,0-1.78,1.49-2.82,3.42,1.58-.57,2.94-.99,3.85-1.14-.16-1.62-.53-2.28-1.03-2.28"/>
        <path class="cls-5" d="M131.72,228.32s.04.03.06.05c.11.09.23.18.4.18.12,0,.27-.05.48-.18l-.93-.05M131.38,228.18c-.09,0-.2.03-.34.1l.68.03c-.1-.07-.2-.13-.34-.13M90.03,226.28c.08.12.08.27,0,.4l-1.53,2.5c-.14.23,0,.53.27.56,2.61.31,5.39.44,8.27.44,5.51,0,11.41-.45,17.2-.91,2.39-.19,4.76-.38,7.08-.53,3.29-.22,6.47-.38,9.44-.38h.04l.19-.05s.03-.02.05-.02l-5.37-.26-35.64-1.74"/>
        <path class="cls-6" d="M222.44,80.06c-3.58,0-9.36,1.34-18.35,4.38-5.43,1.23-21.19,4.2-17.77,12.53,0,.84.04,1.71.14,2.59.43.16.85.34,1.25.54,1.52,4.91,6.26,15.59,9.87,26.35,3.68,6.7,7.36,13.3,9.46,19.17.84,2.91,3.18,4.01,6.3,4.01,8.52,0,22.85-8.17,28.32-9.63-42.08-23.24-.53-59.93-19.22-59.92"/>
        <path class="cls-6" d="M178.59,98.35c-8.44,0-18.25,3.04-22.56,5.36-5.96,3.33,7.3,14.55,9.25,18.41,6.32,10.53,12.64,21.05,18.95,31.58,4.24,1.85,7.57,2.67,10.15,2.67,10.99,0,8.18-15.03,3.18-29.93-3.61-10.75-8.35-21.44-9.87-26.35-.4-.2-.82-.38-1.25-.54-2.28-.85-4.99-1.2-7.86-1.2"/>
        <polyline class="cls-2" points="300.97 153.86 300.97 153.86 300.98 153.87 300.97 153.86"/>
        <path class="cls-4" d="M124.51,135.5c-4.69,0-9.38,3.52-13.66,13.13-.81,1.81-.77,3.94-.07,6.26,2.7,8.9,15.29,20.57,28.17,27.54,6.73,3.64,13.54,5.99,19.08,5.99,1.05,0,2.06-.09,3.01-.26,12.1-2.26,5.65-14.95-3.43-25.63-4.95-5.82-10.67-11.03-14.6-13.64-1.23-1.49-2.51-2.98-3.83-4.4-4.57-4.92-9.63-8.98-14.67-8.98"/>
        <polyline class="cls-2" points="266 84.2 266.12 84.44 266.17 84.41 266 84.2"/>
        <path class="cls-1" d="M345.98,114.17c-3.3,0-6.76,2.2-10.18,8.78-.09.18-.18.36-.28.54-.92,1.83-2.57,4.53-4.52,7.75-.47.77-.95,1.57-1.44,2.39-.09.14-.17.29-.26.43-8.99,15.03-21.15,37.62-.45,37.62.26,0,.53,0,.81-.01.64-.02,1.32-.06,2.02-.11,11.18-12.95,27.58-24.48,35.62-39.31.6-1.12,1.16-2.25,1.67-3.41-1.17-.21-4.28-5.93-5.66-5.93-.06,0-.12.01-.18.04-.26.11-.53.17-.81.17-1.85,0-4.28-2.23-7.07-4.46-2.79-2.23-5.95-4.46-9.27-4.46"/>
        <path class="cls-5" d="M401.44,193.02c-7.22,0-17.22,4.84-29.43,13.83-19.42,14.31-9.25,24.46,7.17,24.46,3.2,0,6.64-.39,10.14-1.2.55-.01,1.13-.02,1.74-.02.57,0,1.17,0,1.79,0,.62,0,1.26,0,1.91,0,9.75,0,22.68-.78,19.6-13.99.59-15.82-4.07-23.09-12.92-23.09"/>
        <path class="cls-7" d="M389.14,160.19c-4.22,2.63-10.16,6.29-16.28,10.52-3.71,2.56-7.48,5.34-10.99,8.22-7.02,5.77-12.95,11.98-15.08,17.81,2.78,7.44,7.69,10.1,13.52,10.1,13.39,0,31.61-14.08,39.94-16.76,11.97-3.77-4.48-24.8-11.11-29.9"/>
      </g>
      <g>
        <path class="cls-3" d="M427.81,260.32c-16.15-.12-32.3-.34-48.45-.3-4.8,0-9.41-.13-10.7-5.77-1.37-6,2.3-9.12,7.43-10.99,11.41-1.3,22.87-1.01,34.32-.67-11.46-.33-22.91-.63-34.32.67,16.43.06,32.86.11,49.3.17.22-.17.43-.34.65-.51,7.48-.77,8.3-6.13,7.89-11.94C412.32,11.82,88.74,12.01,66.13,229.84c-.52,5.9-.04,11.05,6.66,13.19,13.65.1,27.29.27,40.93.27,6.23,0,12.4.79,12.69,8.44.3,7.87-5.86,8.41-11.98,8.33-13.73.06-27.55-.63-41.24.06-17.77,3.56,4.37,55.48,8.67,66.7,8.95,18.87,21.02,36.26,35.43,51.34.19,0,.29.1.28.29,22.24,22.02,49.09,38.45,79.07,47.47h0c6.13,1.85,12.39,3.26,18.69,4.37.13-.05.21-.01.25.11,24.02,3.99,48.77,4.4,72.55-.67l-.03.03c1.05-.1,2.1-.35,3.15-.32,27.62-7.08,53.21-18.82,75.25-37.1,4.31-3.49,8.85-7.46,12.64-11.17,1.5-1.45,2.97-2.94,4.47-4.4.22-.22.44-.44.66-.65l-.03.02c5.49-5.65,10.42-11.79,15.1-18.13-.01-.14.05-.22.19-.24,18.15-24.26,29.34-52.71,33.75-82.58.91-5.85,1.35-11.78-5.49-14.88ZM411.57,215.99c3.65,15.77-13.25,11.13-22.69,11.02v.09c-7.12,0-27.35,3.14-24.09-10.44,1.4-5.85,10.06-8.17,14.69-10.51,6.58-3.33,13.17-6.67,19.81-9.91,11.06-5.38,11.81,12.37,12.28,19.75ZM390.34,164.02c6.55,4.21,8.42,11.5,10.8,18.17,1.42,3.97-2.85,5.44-5.59,6.93-9.97,5.41-19.85,11.05-30.17,15.73-7.9,3.58-10.85-2.08-12.48-7.79,0-4.14,1.9-6.34,4.25-8.24,9.82-7.92,19.64-15.84,29.53-23.66.97-.76,2.95-1.59,3.66-1.14ZM385.03,152.73c-.07-1.19-.63-2.28-1.87-2.97,1.24.69,1.8,1.78,1.87,2.97ZM374.8,140.55s0-.01,0-.02c-.09-.35-.22-.66-.37-.93.15.27.27.58.37.93.21.21.41.43.62.64.69.57,1.33,1.21,1.9,1.92l-.03-.03c.22.22.44.44.66.67,0,0-.02,0-.03,0h0c1.48,1.89,2.95,3.79,4.43,5.68h0c1.16,2.62,3.12,5.18.63,8.08h.03c-.21.21-.42.44-.64.66-.21.21-.42.42-.62.62-.22.21-.44.42-.65.63,0,0,0-.01,0-.02-1.26,1.06-2.53,2.12-3.79,3.17h.01c-1.37,1.37-2.98,2.47-4.42,3.76-1.05.86-2.1,1.72-3.15,2.58-.22.21-.44.41-.66.62v-.02c-1.04.85-2.12,1.66-3.15,2.55h0c-.24.19-.48.4-.72.6l.03-.06c-1.08.84-2.14,1.7-3.17,2.61l.03-.05c-.46.4-.93.79-1.39,1.19l.08-.04c-.9.61-1.72,1.3-2.5,2.05,0,0,0-.02-.01-.02-1.03.85-2.06,1.71-3.09,2.57-.23.21-.46.42-.69.63v-.03s0,0,.01,0c-1.9,1.27-3.79,2.54-5.68,3.82,0,0,.01-.02.02-.03h-4.95s0,.01.02.02c-1.48-1.04-2.96-2.07-4.44-3.11-.22-.22-.42-.45-.64-.67h.01c-5.07-9.08,3.36-12.94,7.16-18.6.52-.92,1.08-1.81,1.66-2.68-.56.85-1.1,1.73-1.61,2.63,4.76-5.12,9.52-10.25,14.27-15.38-2.12,1.46-4.1,3.05-5.94,4.77,1.83-1.73,3.81-3.32,5.94-4.77h-.01c1.01-1.11,2.11-2.13,3.12-3.25,3.36-2.49,5.84-7.69,11.32-3.69ZM340.55,158.65c.38.05.72.07,1.02.05-.3.02-.64,0-1.02-.05ZM355.95,143.39c.59-.78,1.01-1.72,1.22-2.85-.15,1.22-.6,2.12-1.22,2.85ZM369.57,138.28c-1.8.53-3.63,1.72-4.81,3.12,1.18-1.4,3.02-2.6,4.81-3.12ZM364.88,130.79c.11.74-.26,1.6-1.47,2.71,1.15-1.06,1.56-1.94,1.47-2.71ZM342.58,118.51c-.23.2-.42.42-.6.66.18-.24.37-.46.6-.66ZM340.73,122.81c1.54-1.8,3.08-3.59,4.62-5.39,1.8.15,3.61.3,5.41.44.83.63,1.66,1.26,2.5,1.89l-.04-.06c.24.21.47.43.71.64,1.63.24,2.76.74,3.63,1.44-1-.71-2.22-1.19-3.63-1.44h-.02c2.13,1.87,4.26,3.75,6.39,5.62-.1-.38-.22-.74-.35-1.07.31.54.63,1.11.98,1.72h0c.56.69,1.34,1.28,2.07,1.86-.29-.19-.59-.38-.91-.56.44,1.87.88,3.74,1.33,5.61-.63.84-1.26,1.69-1.89,2.53l.02-.02c-.2.23-.41.45-.62.68-.2.21-.41.43-.62.64h0c-1.04,1.05-2.07,2.11-3.08,3.18l-.05.05c-1.72,1.86-3.43,3.73-5.15,5.59.32-.13.63-.26.93-.41-.51.33-1.02.67-1.49,1.05-2.41,2.63-4.82,5.26-7.23,7.89-.4.45-.82.88-1.23,1.32l-.05.05c-.8.86-1.59,1.72-2.4,2.58h0s0,0,0,0c-1.43,1.73-2.85,3.46-4.28,5.18-.2.24-.41.47-.62.71-1.07,1.02-2.14,2.04-3.22,3.05h0c-3.77,1.56-7.28.96-10.59-1.28l.02.04c-.23-.22-.45-.44-.68-.65h.02c-5.44-6.37-.37-11.19,2.44-16.34.2-.72.45-1.42.71-2.1-.26.67-.5,1.36-.69,2.07,2.33-3.57,4.65-7.13,6.98-10.7h0c-1.21,1.05-2.3,2.17-3.25,3.38.95-1.21,2.03-2.33,3.25-3.37.43-.63.85-1.26,1.28-1.89h0c.48-.8.96-1.6,1.44-2.41l-.04.02c.58-.9,1.15-1.8,1.73-2.7.26-.41.51-.81.77-1.22l-.04.07c.4-.66.81-1.32,1.21-1.98.43-.63.85-1.26,1.28-1.88h-.01c.42-.62.85-1.26,1.27-1.9h-.01c.42-.63.84-1.27,1.25-1.91ZM335.83,175.74c.04-.33.11-.65.2-.96-.08.31-.15.64-.2.96ZM334.76,167c-.11.09-.22.18-.35.25.13-.07.24-.16.35-.25ZM337.28,106.97c-1-.7-2.19-1.26-3.25-1.79,1.05.53,2.25,1.09,3.25,1.79ZM334.02,105.17c-1.71-.87-3.33-2.06-4.97-3.21,1.75,1.19,3.42,2.41,4.97,3.21ZM322.74,98.58c-1.69-.46-3.52-.51-5.54.14,1.85-.78,3.71-.71,5.54-.14ZM307.99,114.99c.9-2.14,1.8-4.28,2.7-6.42-.96.51-1.62,1.15-2.05,1.89.42-.74,1.06-1.38,2.05-1.89.27-.95.74-1.85,1.08-2.78l-.03.03c.85-1.7,1.69-3.4,2.54-5.1.62-.61,1.25-1.1,1.87-1.49,7.23-1.31,23,8.97,21.99,14.66.67-.98,1.05-1.84,1.22-2.6-.17.77-.55,1.64-1.23,2.62-.63,1.05-1.26,2.09-1.89,3.13-.52.75-1.04,1.49-1.56,2.24-.38.67-.81,1.31-1.21,1.97l.16.03h-.17c-.17.26-.33.52-.5.78l.02-.03c-.42.63-.84,1.26-1.25,1.89,0,.3,0,.61-.02.91,0-.28,0-.58,0-.87-.9,1.37-1.81,2.73-2.71,4.1.95-.09,1.57-.4,1.97-.85-.4.45-1.02.76-1.97.85-.33.54-.67,1.08-1,1.61-.38.65-.79,1.28-1.18,1.93-.2.85-.44,1.66-.73,2.45.27-.75.49-1.54.67-2.35-2.9,3.73-5.32,7.78-7.66,11.89,0,0,.01-.01.02-.02,1.38-1.12,2.61-2.34,3.68-3.66-1.06,1.33-2.29,2.54-3.68,3.66-.41.65-.81,1.3-1.22,1.95h0c-.85,1.46-1.7,2.94-2.55,4.42h0c-.63,1.05-1.26,2.11-1.89,3.16h0c-1.01,1.26-2.14,2.19-3.33,2.76.69-.36,1.39-.85,2.1-1.48-3.72,2.28-7.21.67-10.71-.66,1.16,1.18,2.34,2.01,3.55,2.47-1.24-.43-2.45-1.25-3.55-2.47,0,0,0,0-.01,0-4.58-2.9-7.27-6.42-3.94-11.94.49-1.46.98-2.91,1.48-4.37,0-.03.01-.05.02-.08,2.18-5.39,4.36-10.78,6.54-16.17-.12-.35-.2-.68-.24-1,.04.3.12.61.23.93.77-1.97,1.54-3.93,2.3-5.9-.61.47-1.14.96-1.57,1.5.42-.54.96-1.04,1.57-1.5-.02-.45-.03-.9-.03-1.34,0,.37.03.75.08,1.14ZM299.71,134.59c.62-2.66,1.36-5.28,2.46-7.75-1.1,2.47-1.84,5.09-2.46,7.75ZM305.63,93.22c4.3,1.94.34,7.51-.37,10.61.03.47.05.94.03,1.39,0-.39-.03-.78-.08-1.19-.85,2.23-1.7,4.46-2.55,6.68,0,0,.02-.01.03-.02.78-.62,1.37-1.31,1.79-2.06-.41.75-.98,1.45-1.79,2.06-.42,1.06-.83,2.12-1.25,3.18l.02-.02c-.42,1.07-.84,2.14-1.25,3.21l.02-.03c-.26.62-.52,1.24-.78,1.85l.04-.05c-.11.45-.59.82-.52,1.28-.43,1.08-.85,2.17-1.28,3.26l.02-.02c-.86,2.1-1.72,4.21-2.58,6.31,0,0,0,0,.02,0-.51,1.2-1.02,2.4-1.53,3.6l.02.1c-.38,1.08-.76,2.15-1.14,3.22l.05-.03c-.82,2.14-1.65,4.28-2.47,6.42-.76,1.08-1.73,2.02-2.79,2.64.33-.22.65-.47.98-.78-2.31,0-4.62,0-6.93.01.84.75,1.68,1.23,2.51,1.45-.86-.17-1.71-.63-2.51-1.45-5.9-1.24-11.79-2.47-17.69-3.7h0c24.04-20.5,24.61-34.31,3.19-56.84h0c13.5.52,26.47,3.46,38.81,8.92ZM249.52,96.83c19.31.42,19.08,27.53.12,29.35-18.23-1.73-19.14-29.77-.12-29.35ZM204.47,89.48c7.97-1.81,13.79-4.23,21.9-3.31-19.97,20.29-13.91,38.33,9.89,54.63-7.46,1.99-25.12,9.93-28.26-.96-4.6-11.28-9.19-22.56-13.79-33.85.03,2-1.04,3.07-2.3,3.97,2.59-2.09,3.02-3.66.4-8.36l.05-.19c-5.38-8.8,5.85-10.95,12.13-11.95ZM164.31,107.52c10.22-6.62,5.84-9.03,19.62-6.71.03,0,.07,0,.1,0-.03,0-.06,0-.1,0,.34.61.69,1.22,1.03,1.84,1.39,3.12,2.78,6.24,4.16,9.37,4.36,10.21,7.72,19.77,12.08,29.98.27,5.16.91,6.88-2.39,10.28-4.64,2.56-7.54,2.06-13.98-.51-6.32-10.53-12.64-21.05-18.95-31.58-1.95-3.86-7.53-9.35-1.58-12.67ZM184.14,100.8c.07,0,.09,0,0,0h0ZM181.55,161.63c-.03.43-.28.81-.93,1.15.61-.33.88-.72.93-1.15ZM148.09,119.42c4.35-2.46,8.95-.72,10.03,2.1,7.36,12.01,17.39,28.38,22.08,36.03-.04.68.24,1.33.55,1.95-.14-.22-.29-.45-.43-.67-.26,1.46-.53,2.91-.79,4.37-6.42,8.77-13.08,4.97-18.26-1.88h0c-.7-.89-1.44-1.75-2.17-2.63-6.67-7.49-13.34-14.98-20.01-22.46h0c-6.16-10.42,4.81-12.01,8.99-16.81ZM116.23,155.61c.71-2.29,1.42-4.58,2.13-6.88,3.99-3.75,5.83-10.83,13.58-8.79,4.19,4.48,8.38,8.96,12.57,13.44l-.07.11c.42.44.85.87,1.28,1.31l-.17.03c.13.17.97.81.58.69,2.33,1.86,4.18,4.28,6.3,6.37,3.24,4.35,10.94,9.65,9.97,15.84-.93,5.69-8.24,9.12-13.11,6.59-.51-.22-1.05-.39-1.59-.54.36.08.72.16,1.08.24-2.37-1.86-4.75-3.73-7.12-5.59-1.64-1.33-3.33-2.6-4.98-3.92l.02.02c-1.08-.94-2.17-1.87-3.25-2.81-.17-.11-.34-.22-.52-.33-1.27-1.1-2.55-2.2-3.82-3.31-.46-.36-.9-.72-1.36-1.08-1.05-.82-2.09-1.65-3.14-2.47l-.06-.05c-1.25-1.03-2.49-2.06-3.74-3.09-1.48-1.59-3.58-3.81-4.73-6.03.05.08.09.15.15.23ZM100.4,175.4c.68-.87,1.42-1.75,2.18-2.65,1.22-1.91,2.44-3.83,3.67-5.74.46-.59.92-1.18,1.39-1.77.58-.32,1.16-.64,1.74-.97,1.18.11,2.44.3,3.71.59,3.56,2.68,7.12,5.36,10.68,8.05h.01c1.32,1.01,2.58,2.1,3.9,3.11,1.49,1.22,2.98,2.44,4.47,3.67,0,0,0,0,0,0,.85.85,1.88,1.43,2.95,1.93-.53-.22-1.06-.45-1.56-.71,2.87,2.38,5.74,4.76,8.61,7.13,0,0,0-.01,0-.02,1.29,1.24,2.58,2.49,3.86,3.73,0,0,0-.02,0-.03.2.29.41.59.62.88-.08.15-.05.27.11.34,1.93,5.15-.66,10.33-5.7,12.59-1.69.02-3.38.03-5.07.05.29.43.58.74.86.96-.34-.24-.68-.6-1.03-1.1l-.21.05c-.49-.2-.99-.4-1.48-.6-.83-.45-1.66-.89-2.51-1.32-1.24-.65-2.47-1.31-3.71-1.96v.04c-1.5-.82-3-1.64-4.51-2.46h0c-1.67-.85-3.35-1.71-5.02-2.58,0,.01,0,.02,0,.04-.3-.2-.63-.38-.9-.62h-.26c-.32-.22-.71-.36-.96-.66-.88-.2-1.79-.78-2.57-1.26-.1,0-.2-.02-.31-.03-4.05-2.07-8.1-4.14-12.14-6.22-.38-.27-.74-.62-1.23-.64h0c-3.22-4.95.6-8.92,1.83-13.25-.52.47-1,.95-1.44,1.43ZM141.04,205.53c-.59.45-1.17.87-1.75,1.14.58-.29,1.17-.73,1.75-1.14ZM134.98,213.32c-.28-.43-.75-.69-1.44-.77.85.07,1.24.36,1.44.77ZM88.53,208.58c.35,2.03-.37,4.19-1.08,6.36.71-2.16,1.43-4.33,1.08-6.36ZM92.27,226.47h-1.3c-2.72-4.02-3.24-14.38-1.24-22.17-.32.67-.65,1.34-.88,2,.24-.68.57-1.37.9-2.06,1.97-7.62,6.35-12.75,13.42-6.97,13.44,8.2,26.24,10.35,32.62,19.11.33,3.29.15,6.7-2.41,8.68-10.71,4.65-27.8.18-41.11,1.4ZM397.59,296.53c-6.27.87-18.47-1.37-22.79,2.46-37.86,112.69-196.63,124.38-243.36,12.23v.03c-.14-.46-.66-.81-.57-1.29-3.9-23.58-34.07-3.32-39.19-19.86-3.14-20.33,34.9-5.9,46.18-13.77h-.03c12.84-7.48,9.59-21.65,11.28-33.16,6.38-40.61,47.53-79.57,88.51-83.73,2.94-.3,3.32.46,3.29,3.16-.14,18.21-.07,36.42-.16,54.63,0,1.05-.71,2.76-1.49,3.04-28.62,10.22-38.08,23.11-39.34,53.62-.04,1.04-.92,2.57-1.82,2.98-15.51,6.85-18.38,29.5-5.79,41.05h0c4.23,2.87,9.46,4.28,14.4,5.39,6.98-.88,14.37-1.26,19.53-6.7,13.18-15.58,7.59-30-7.53-41.8-4.2-26.34,26.6-47.18,48.63-30.86,10.54,7.07,16.16,20.19,12.63,32.24-26.56,15.26-13.4,50.65,15.22,46.95,22.69-5.3,26.91-35.14,5.82-46.55-4.11-29.84-9.52-45.97-40.28-56.09-.73-.25-1.52-1.6-1.53-2.44-.08-18.94-.02-37.89-.09-56.83,0-2.09.6-2.3,2.51-2.06,48.75,6.07,88.62,50.49,89.12,99.47-.07,7.01,3.07,13.15,8.31,17.63,9.82,3.49,20.04,2.81,30.29,2.8,7.6.18,20.29-2.17,19.99,8.79.15,6.99-5.35,9.26-11.77,8.68Z"/>
        <path class="cls-3" d="M183.71,100.82c-.09,0-.07,0,0,0h0Z"/>
        <polygon class="cls-3" points="301.57 153.73 301.57 153.73 301.57 153.73 301.57 153.73"/>
        <path class="cls-3" d="M89.74,204.25s-.01.04-.02.06c.15-.32.31-.64.45-.96-.14.3-.29.6-.44.9Z"/>
        <path class="cls-3" d="M183.82,100.82s-.08,0-.11,0c.03,0,.06,0,.11,0Z"/>
        <path class="cls-3" d="M183.93,100.81s-.07,0-.11,0c.03,0,.07,0,.11,0Z"/>
      </g>
    </g>
  </g>
</svg>