<?xml version="1.0" encoding="UTF-8"?>
<svg xmlns="http://www.w3.org/2000/svg" version="1.1" viewBox="0 0 500 500">
  <defs>
    <style>
      .cls-1 {
        fill: #50a2fa;
      }

      .cls-2 {
        fill: #e9eeff;
      }

      .cls-3 {
        fill: #c1f6f1;
      }

      .cls-4 {
        fill: #191919;
      }

      .cls-4, .cls-5, .cls-6, .cls-7, .cls-8 {
        display: none;
      }

      .cls-9 {
        fill: #b9dafd;
      }

      .cls-5 {
        opacity: .4;
      }

      .cls-10, .cls-7 {
        fill: #f1cfff;
      }

      .cls-6 {
        fill: #fff;
      }

      .cls-11 {
        fill: #f69240;
      }

      .cls-12 {
        fill: #002972;
      }

      .cls-13 {
        fill: #eb5e1d;
      }

      .cls-14 {
        fill: #65e9dd;
      }

      .cls-15 {
        fill: #fbd3b3;
      }

      .cls-16 {
        fill: #f8d49a;
      }

      .cls-17 {
        fill: #c5adef;
      }

      .cls-18 {
        fill: #cdfddf;
      }

      .cls-19 {
        fill: #83faaf;
      }

      .cls-20 {
        fill: #f7bfa5;
      }

      .cls-21 {
        fill: #6f32d8;
      }

      .cls-22 {
        fill: #fceed7;
      }
    </style>
  </defs>
  <!-- Generator: Adobe Illustrator 28.7.3, SVG Export Plug-In . SVG Version: 1.2.0 Build 164)  -->
  <g>
    <g id="Layer_1">
      <g id="Layer_1-2" data-name="Layer_1">
        <g id="Layer_1-2">
          <g id="Layer_1-2-2" data-name="Layer_1-2">
            <rect class="cls-7" x="-452.2" y="-176.8" width="1366.8" height="784.7"/>
            <rect class="cls-4" x="-193.6" y="-97.7" width="1366.8" height="784.7"/>
            <rect class="cls-6" x="-218.4" y="-125.7" width="1366.8" height="784.7"/>
            <g class="cls-8">
              <path class="cls-10" d="M357.9,185.2c-15.5,18.4-39.5-5.1-20.9-19.4,9.2-6.1,30.5-42.5,43.4-31.7,27.2,22.8-13.3,41.7-22.4,51.1h-.1Z"/>
              <path class="cls-10" d="M316,98.8c-7.8,13-16,31.8-21.7,46-6.4,9,13.7,20.3,19.9,13.4,3.2-5.4,13.4-17.1,16.6-22.7,3.6-6.6,25.3-32.6-14.8-36.7h0Z"/>
              <path class="cls-10" d="M310.6,100.1c-3.9,11.1-12.3,31.4-16.3,42.4-2.3,15.1-27,5.8-37,4.9,24-20.5,27.9-41.2,6.3-63.9,11.5,2.3,56-1.8,47,16.6h0Z"/>
              <path class="cls-10" d="M106.7,157.4c8.9-5.2,22.5,13.2,27,17.5,13.4,13.4.3-2.8,9.2,15.1,12.6,8.8,11.9,22.3-5.9,21.7-7.6-3.3-14.7-7.2-22.4-10.1-22.9-8.6-24.6-23.9-7.9-44.2h0Z"/>
              <path class="cls-10" d="M187.6,161.1c-7.1,30-43.3-7.2-54.4-24.5-6.6-10.3,11-17.1,16.9-19.3,14.9-5.6,15.3,16.9,37.5,43.8h0Z"/>
              <path class="cls-10" d="M140.9,221.6"/>
              <path class="cls-10" d="M69.8,239.3c.2.2,25.6-46.4,25.7-46.6,1.1-2.9-22.6,8.4-20.3,6.8.1,0,.2-.3.3-.5,0-.1.2-.2.3-.2,3.1-.5,6.2,1.3,8.9,2.2h0c2.7,1.4-1-.3,1.7,1.1.2,0,8-21.4,7.9-7.4l-11.4,6.2c4.1-5.8-23.6,5-.6-1.8,48.8-14.5,60,28.3,60.3,28.2"/>
              <path class="cls-10" d="M133.9,230.2c-.9.6-.8-.5-1.6,0h-.2c-12.8,0-29.5,2.9-42,1.4-.3,0-.4-.3-.3-.6l1.5-2.5v-.4"/>
              <path class="cls-10" d="M187.6,98.8c-3.4-8.3,12.3-11.3,17.8-12.5,56-18.9-12.6,27.9,37.6,55.5-7.5,2-31.5,16.5-34.6,5.6-5.4-14.9-20.8-34.5-20.7-48.6h-.1,0Z"/>
              <path class="cls-10" d="M166.6,123.9c-2-3.9-15.2-15.1-9.2-18.4,6.1-3.2,22.9-7.9,31.7-3.6,4.1,13.3,31.9,69-3.5,53.6-6.3-10.5-12.6-21.1-18.9-31.6h-.1Z"/>
              <path class="cls-10" d="M302.3,155.7h0Z"/>
              <path class="cls-10" d="M144.3,150.7c-9.4-11.4-21.9-23.2-32.2-.2-5.8,13.1,32.2,42.9,50.2,39.5,18.7-3.5-6.9-31.9-18-39.3Z"/>
              <path class="cls-10" d="M267.5,86.2l-.2-.2s0,.2.1.2h.1Z"/>
              <path class="cls-10" d="M370.3,130.7c-7.2,16.5-25.3,28.8-37.3,42.7-31.5,2.6-1.5-37.5,3.8-48.1,10.9-21.8,22.3,1.8,27.6-.6,1.3-.6,4.6,5.7,5.8,5.9h0l.1.1Z"/>
              <path class="cls-10" d="M390.6,231.9c-21.5,5-40.5-6.2-17.3-23.3,27.2-20,43.4-19.4,42.4,9.3,3.7,15.9-15.9,13.8-25,14h-.1Z"/>
              <path class="cls-10" d="M348.1,198.6c5-13.6,30.4-29.1,42.4-36.6,6.6,5.1,23.1,26.1,11.1,29.9-12,3.8-44.3,31.2-53.5,6.6h0v.1Z"/>
            </g>
            <g>
              <path class="cls-15" d="M374.78,132.51c-2.05,0-4.21.72-6.43,1.96-8.03,14.84-24.48,26.39-35.65,39.33-.7.06-1.36.09-2,.11-3.3,9.12,4.52,18.44,13.93,18.44,4.3,0,8.93-1.95,12.97-6.75h.1c1.01-1.04,2.4-2.19,4.04-3.46,3.97-3.35,8.35-6.58,12.63-9.52,12.38-10,23.5-23.23,5.73-38.12-1.65-1.38-3.43-1.99-5.32-1.99"/>
              <path class="cls-22" d="M315.8,99.2c-7.8,13-16,31.8-21.7,46-5.02,7.06,6.26,15.53,14.35,15.53,2.23,0,4.21-.64,5.55-2.13,2.83-4.78,11.14-14.49,15.24-20.54,3.07-5.21,5.94-9.71,7.26-12.36.35-.7.7-1.35,1.05-1.96,4.27-9.85,4.43-21.86-21.75-24.54"/>
              <path class="cls-22" d="M267.1,86.6c-.1,0-.1-.2-.1-.2l.2.2h-.1M263.3,83.9c21.6,22.7,17.7,43.4-6.3,63.9,5.61.51,15.85,3.65,24.16,3.65,6.5,0,11.83-1.93,12.84-8.55,4-11,12.4-31.3,16.3-42.4,9-18.4-35.5-14.3-47-16.6"/>
              <path class="cls-9" d="M109.84,156.88c-1.2,0-2.36.28-3.44.92-13.62,16.56-15,29.79-2.61,38.78,13.46.74,22.5,6.87,28.43,13.49,1.48.69,2.97,1.37,4.49,2.03.38,0,.76.02,1.13.02,16.69,0,17.1-13.11,4.77-21.72-1.23-2.47-2.04-4.29-2.56-5.63-12.96-6.96-25.65-18.73-28.33-27.68-.63-.14-1.26-.21-1.87-.21"/>
              <path class="cls-3" d="M154.03,116.74c-1.28,0-2.68.28-4.23.86-5.9,2.2-23.5,9-16.9,19.3,1.88,2.93,4.48,6.43,7.54,10.08,1.1,1.2,2.18,2.45,3.21,3.7.14.16.28.31.43.47,3.88,2.6,9.49,7.73,14.37,13.45,6.26,4.8,12.56,8.11,17.76,8.11s9.17-3.2,11.09-11.32c-19.89-24.1-22.28-44.66-33.27-44.66"/>
              <path class="cls-17" d="M69.61,239.7h0M142.4,227.7h0M82.98,200.83c-.07.14-.16.3-.28.47l.61-.33c-.11-.04-.22-.09-.33-.13M76.7,199.11c-.37,0-.73.03-1.1.09-.1,0-.3.1-.3.2-.1.2-.2.5-.3.5-.15.11-.18.16-.11.16.18,0,1.09-.36,2.43-.92-.21-.02-.41-.02-.62-.02M87.93,198.46l-4.61,2.51c.4.16.8.3,1.19.43.93.48,1.1.6,1.04.6-.03,0-.11-.02-.19-.05-.08-.02-.16-.05-.19-.05-.07,0,.11.11,1.04.6.06,0,.76-1.82,1.73-4.04M89.3,197.71c-.38.08-.76.15-1.15.24-.08.17-.15.34-.22.51l1.37-.75M101.02,196.5c-2.48,0-5.11.18-7.88.56-6.12,11.22-23.15,42.38-23.54,42.64l53.02-8.74c-8.05.53-16.76,1.47-24.66,1.47-2.85,0-5.6-.12-8.17-.43-.3,0-.4-.3-.3-.6l1.5-2.5v-.4l35.83,1.77,15.57-2.57h0c-.14,0-2.27-7.8-8.47-15.6-.54-.68-1.11-1.36-1.71-2.03-5.93-6.62-14.97-12.75-28.43-13.49-.9-.05-1.82-.08-2.76-.08M90.06,193.92c-1.87.68-4.02,1.55-6.11,2.42-2.51,1.04-4.92,2.09-6.63,2.8.86.07,1.7.26,2.54.53-1.36.21-2.93.61-4.23,1.01-1.88.58-3.22,1.16-2.62,1.16.55,0,2.74-.49,7.63-1.91.8.28,1.58.61,2.34.91.4-.84-.08-1.21-1-1.3.04,0,.08-.02.12-.04,2.08-.62,4.1-1.13,6.05-1.55.58-1.33,1.25-2.77,1.92-4.03M94.78,192.62c-.21,0-.46.03-.77.09.06.64.09,1.43.08,2.39l-4.8,2.61c1.31-.26,2.59-.47,3.84-.65,1.33-2.43,2.14-3.93,2.16-3.96.13-.33-.07-.48-.52-.48M92.97,190.35c-.77,0-1.84,1.56-2.9,3.57,1.61-.59,3-1.03,3.95-1.21-.16-1.68-.54-2.36-1.05-2.36"/>
              <path class="cls-17" d="M132.64,230.55s.07.05.1.07c.11.08.22.16.38.16.12,0,.28-.05.48-.18l-.96-.05M132.38,230.47c-.07,0-.15.02-.25.06l.51.03c-.08-.05-.16-.09-.26-.09M91,228.5v.4l-1.5,2.5c-.1.3,0,.6.3.6,2.57.31,5.31.43,8.17.43,7.9,0,16.61-.94,24.66-1.47,3.2-.21,6.28-.36,9.17-.36h.2s.09-.05.13-.07l-5.3-.26-35.83-1.77"/>
              <path class="cls-18" d="M223.44,82.33c-3.58,0-9.36,1.34-18.34,4.37-5.5,1.2-21.2,4.2-17.8,12.5l.1.1c0,.8.04,1.62.13,2.46.44.16.86.34,1.27.54,1.53,4.96,6.36,15.83,9.98,26.71,3.62,6.61,7.23,13.1,9.32,18.89.83,2.92,3.17,4.02,6.28,4.02,8.5,0,22.83-8.16,28.32-9.62-42.15-23.26-.55-59.98-19.26-59.97"/>
              <path class="cls-18" d="M179.69,100.57c-8.45,0-18.24,3.04-22.59,5.33-6,3.3,7.2,14.5,9.2,18.4h.1c6.3,10.5,12.6,21.1,18.9,31.6,4.24,1.84,7.57,2.67,10.15,2.67,10.91,0,8.24-14.79,3.33-29.56-3.62-10.88-8.45-21.75-9.98-26.71-.41-.2-.83-.38-1.27-.54-2.29-.84-4.99-1.19-7.84-1.19"/>
              <path class="cls-3" d="M125.53,137.73c-4.7,0-9.41,3.52-13.73,13.17-.79,1.79-.77,3.9-.08,6.19,2.67,8.95,15.36,20.71,28.33,27.68,6.68,3.59,13.42,5.9,18.91,5.9,1.06,0,2.08-.09,3.04-.27,12.16-2.28,5.59-15.08-3.55-25.8-4.88-5.72-10.49-10.84-14.37-13.45-.03-.02-.05-.04-.08-.05-.11-.14-.23-.28-.35-.42-1.04-1.25-2.11-2.5-3.21-3.7-4.62-5.04-9.76-9.26-14.91-9.26"/>
              <path class="cls-22" d="M267,86.4s0,.2.1.2h.1l-.2-.2"/>
              <path class="cls-15" d="M346.94,116.38c-3.05,0-6.23,1.88-9.39,7.36-.35.61-.7,1.26-1.05,1.96-1.33,2.65-4.2,7.15-7.26,12.36-8.81,14.98-19.25,35.86.69,35.86.25,0,.52,0,.78,0,.64-.02,1.3-.05,2-.11,11.17-12.94,27.62-24.49,35.65-39.33.6-1.11,1.15-2.23,1.65-3.37l-.1-.1c-1.15-.19-4.2-5.94-5.61-5.94-.07,0-.13.01-.19.04-.26.12-.54.17-.83.17-1.85,0-4.28-2.22-7.07-4.45-2.79-2.22-5.95-4.45-9.26-4.45"/>
              <path class="cls-17" d="M402.41,195.2c-7.22,0-17.21,4.83-29.41,13.8-19.42,14.32-9.27,24.5,7.17,24.5,3.2,0,6.63-.38,10.13-1.2h.1c.53,0,1.1-.02,1.7-.02h3.61c9.71,0,22.77-.77,19.69-14,.55-15.82-4.12-23.1-12.99-23.1"/>
              <path class="cls-20" d="M347.8,198.9v.1s.01-.03.02-.05c0-.02-.01-.03-.02-.05M390.2,162.4c-4.14,2.59-9.89,6.13-15.83,10.22-4.28,2.94-8.66,6.16-12.63,9.52-6.48,5.47-11.87,11.3-13.92,16.81,2.8,7.43,7.71,10.09,13.53,10.09,13.39,0,31.6-14.1,39.95-16.74,12-3.8-4.5-24.8-11.1-29.9"/>
            </g>
            <g class="cls-5">
              <g>
                <path class="cls-11" d="M358,185.7c-15.5,18.4-39.5-5.1-20.9-19.4,9.2-6.1,30.5-42.5,43.3-31.7,27.2,22.8-13.3,41.7-22.4,51v.1h0Z"/>
                <path class="cls-16" d="M316.1,99.3c-7.8,13-16,31.8-21.7,46-6.4,9,13.7,20.3,19.9,13.4,3.2-5.4,13.4-17.1,16.7-22.7,3.6-6.7,25.3-32.6-14.8-36.7h-.1Z"/>
                <path class="cls-16" d="M310.7,100.7c-3.9,11.1-12.3,31.4-16.3,42.4-2.3,15.1-27,5.8-37,4.9,24-20.5,27.9-41.2,6.3-63.9,11.5,2.3,56-1.8,47,16.6Z"/>
                <path class="cls-1" d="M106.8,157.9c8.9-5.2,22.5,13.2,27,17.5,13.4,13.4.3-2.8,9.2,15.1,12.6,8.8,11.9,22.3-5.9,21.7-7.6-3.3-14.7-7.2-22.4-10.1-22.9-8.6-24.6-23.9-7.9-44.2Z"/>
                <path class="cls-14" d="M187.7,161.6c-7.1,30-43.3-7.2-54.4-24.5-6.6-10.3,11-17.1,16.9-19.3,14.9-5.6,15.3,17,37.5,43.8h0Z"/>
                <path class="cls-21" d="M141,222.2"/>
                <path class="cls-21" d="M70,239.9c.2.2,25.6-46.4,25.7-46.6,1.1-2.9-22.6,8.4-20.3,6.8.1,0,.2-.3.3-.5s.2-.2.3-.2c3.1-.5,6.2,1.3,9,2.2s0,0,0,0c2.7,1.4-1-.3,1.7,1.1s8-21.4,7.9-7.5l-11.4,6.2c4.1-5.8-23.6,5-.5-1.8,48.8-14.5,60,28.3,60.3,28.2"/>
                <path class="cls-21" d="M134,230.7c-.9.6-.8-.5-1.7,0s-.1,0-.2,0c-12.8,0-29.5,2.9-42,1.4s-.4-.3-.3-.6l1.5-2.5v-.4"/>
                <path class="cls-19" d="M187.7,99.3c-3.4-8.3,12.3-11.3,17.8-12.5,56-18.9-12.6,27.9,37.6,55.5-7.5,2-31.5,16.5-34.6,5.6-5.3-14.9-20.8-34.5-20.7-48.6,0,0-.1,0-.1,0Z"/>
                <path class="cls-19" d="M166.7,124.5c-2-3.9-15.2-15.1-9.3-18.4,6.1-3.2,22.9-7.9,31.7-3.6,4.1,13.3,31.9,69-3.5,53.6-6.3-10.5-12.6-21.1-19-31.6,0,0,.1,0,.1,0Z"/>
                <path class="cls-16" d="M302.4,156.2h0Z"/>
                <path class="cls-14" d="M144.4,151.3c-9.5-11.4-21.9-23.2-32.2-.2-5.8,13.1,32.2,42.9,50.2,39.5,18.7-3.5-6.9-31.9-18-39.3Z"/>
                <path class="cls-16" d="M267.6,86.8l-.2-.2s0,.2.1.2h.1Z"/>
                <path class="cls-11" d="M370.4,131.2c-7.2,16.5-25.3,28.8-37.3,42.7-31.5,2.6-1.5-37.5,3.8-48.1,10.9-21.8,22.3,1.8,27.6-.6,1.3-.6,4.6,5.7,5.8,5.9l.1.1Z"/>
                <path class="cls-21" d="M390.7,232.5c-21.5,5-40.5-6.2-17.3-23.3,27.2-20,43.4-19.4,42.3,9.3,3.7,15.9-15.8,13.8-25,14Z"/>
                <path class="cls-13" d="M348.2,199.1c4.9-13.5,30.4-29.1,42.3-36.5,6.6,5.1,23.1,26.1,11.1,29.9-12,3.8-44.3,31.2-53.5,6.7l.1-.1h0Z"/>
              </g>
            </g>
            <g class="cls-8">
              <path class="cls-2" d="M428.8,262.5c-16.1-.1-32.3-.3-48.5-.3-4.8,0-9.4-.1-10.7-5.8-1.4-6,2.3-9.1,7.4-11,11.4-1.3,22.9-1,34.3-.7-11.5-.3-22.9-.6-34.3.7,16.4,0,32.9.1,49.3.2.2-.2.4-.3.6-.5,7.5-.8,8.3-6.1,7.9-11.9C413.3,14.1,89.8,14.2,67.1,232.1c-.5,5.9,0,11.1,6.7,13.2,13.7.1,27.3.3,40.9.3s12.4.8,12.7,8.4c.3,7.9-5.9,8.4-12,8.3-13.7,0-27.6-.6-41.2,0-17.8,3.6,4.4,55.5,8.7,66.7,8.9,18.9,21,36.3,35.4,51.3.2,0,.3.1.3.3,22.2,22,49.1,38.5,79.1,47.5h0c6.1,1.9,12.4,3.3,18.7,4.4.1,0,.2,0,.2.1,24,4,48.8,4.4,72.6-.7h0c1,0,2.1-.3,3.1-.3,27.6-7.1,53.2-18.8,75.2-37.1,4.3-3.5,8.9-7.5,12.6-11.2,1.5-1.5,3-2.9,4.5-4.4.2-.2.4-.4.7-.6h0c5.5-5.6,10.4-11.8,15.1-18.1,0-.1,0-.2.2-.2,18.1-24.3,29.3-52.7,33.8-82.6.9-5.9,1.4-11.8-5.5-14.9h-.1ZM412.6,218.2c3.6,15.8-13.2,11.1-22.7,11h0c-7.1,0-27.4,3.2-24.1-10.4,1.4-5.9,10.1-8.2,14.7-10.5,6.6-3.3,13.2-6.7,19.8-9.9,11.1-5.4,11.8,12.4,12.3,19.8h0ZM391.4,166.2c6.5,4.2,8.4,11.5,10.8,18.2,1.4,4-2.9,5.4-5.6,6.9-10,5.4-19.9,11.1-30.2,15.7-7.9,3.6-10.9-2.1-12.5-7.8,0-4.1,1.9-6.3,4.2-8.2,9.8-7.9,19.6-15.8,29.5-23.7,1-.8,3-1.6,3.7-1.1h.1ZM386,154.9c0-1.2-.6-2.3-1.9-3,1.2.7,1.8,1.8,1.9,3ZM375.8,142.8h0c0-.4-.2-.7-.4-.9.1.3.3.6.4.9.2.2.4.4.6.6.7.6,1.3,1.2,1.9,1.9h0c.2.2.4.4.7.6h0c1.5,1.9,3,3.8,4.4,5.7h0c1.2,2.6,3.1,5.2.6,8.1h0c-.2.2-.4.4-.6.7-.2.2-.4.4-.6.6-.2.2-.4.4-.6.6h0c-1.3,1-2.5,2.1-3.8,3.1h0c-1.4,1.4-3,2.5-4.4,3.8-1,.9-2.1,1.7-3.1,2.6-.2.2-.4.4-.7.6h0c-1,.8-2.1,1.6-3.1,2.5h0c-.2.2-.5.4-.7.6h0c-1.1.8-2.1,1.6-3.2,2.6h0c-.5.3-.9.7-1.4,1.1h0c-.9.6-1.7,1.3-2.5,2h0c-1,.9-2.1,1.7-3.1,2.6-.2.2-.5.4-.7.6h0c-1.9,1.3-3.8,2.5-5.7,3.8h-5c-1.5-1-3-2.1-4.4-3.1-.2-.2-.4-.4-.6-.7h0c-5.1-9.1,3.4-12.9,7.2-18.6.5-.9,1.1-1.8,1.7-2.7-.6.9-1.1,1.7-1.6,2.6,4.8-5.1,9.5-10.2,14.3-15.4-2.1,1.5-4.1,3.1-5.9,4.8,1.8-1.7,3.8-3.3,5.9-4.8h0c1-1.1,2.1-2.1,3.1-3.2,3.4-2.5,5.8-7.7,11.3-3.7h0v.1h0ZM341.6,160.9h1-1ZM357,145.6c.6-.8,1-1.7,1.2-2.9-.1,1.2-.6,2.1-1.2,2.9ZM370.6,140.5c-1.8.5-3.6,1.7-4.8,3.1,1.2-1.4,3-2.6,4.8-3.1ZM365.9,133c.1.7-.3,1.6-1.5,2.7,1.1-1.1,1.6-1.9,1.5-2.7ZM343.6,120.7c-.2.2-.4.4-.6.7.2-.2.4-.5.6-.7ZM341.7,125c1.5-1.8,3.1-3.6,4.6-5.4,1.8.2,3.6.3,5.4.4.8.6,1.7,1.3,2.5,1.9h0c.2.2.5.4.7.6,1.6.2,2.8.7,3.6,1.4-1-.7-2.2-1.2-3.6-1.4h0c2.1,1.9,4.3,3.8,6.4,5.6-.1-.4-.2-.7-.4-1.1.3.5.6,1.1,1,1.7h0c.6.7,1.3,1.3,2.1,1.9-.3-.2-.6-.4-.9-.6.4,1.9.9,3.7,1.3,5.6-.6.8-1.3,1.7-1.9,2.5h0c-.2.2-.4.4-.6.7-.2.2-.4.4-.6.6h0c-1,1.1-2.1,2.1-3.1,3.2h0c-1.7,1.9-3.4,3.8-5.1,5.6.3-.1.6-.3.9-.4-.5.3-1,.7-1.5,1.1-2.4,2.6-4.8,5.3-7.2,7.9-.4.4-.8.9-1.2,1.3h0c-.8.9-1.6,1.8-2.4,2.6h0c-1.4,1.7-2.9,3.5-4.3,5.2-.2.2-.4.5-.6.7-1.1,1-2.1,2-3.2,3.1h0c-3.8,1.6-7.3,1-10.6-1.3h0c-.2-.2-.5-.4-.7-.6h0c-5.4-6.4-.4-11.2,2.4-16.3.2-.7.5-1.4.7-2.1-.3.7-.5,1.4-.7,2.1,2.3-3.6,4.6-7.1,7-10.7h0c-1.2,1.1-2.3,2.2-3.2,3.4,1-1.2,2-2.3,3.2-3.4.4-.6.9-1.3,1.3-1.9h0c.5-.8,1-1.6,1.4-2.4h0c.6-.9,1.1-1.8,1.7-2.7.3-.4.5-.8.8-1.2h0c.4-.6.8-1.2,1.2-1.9.4-.6.9-1.3,1.3-1.9h0c.4-.6.9-1.3,1.3-1.9h0c.4-.6.8-1.3,1.2-1.9h-.2,0ZM336.8,178c0-.3.1-.6.2-1,0,.3-.1.6-.2,1ZM335.8,169.2c-.1,0-.2.2-.4.2.1,0,.2-.2.4-.2ZM338.3,109.2c-1-.7-2.2-1.3-3.2-1.8,1,.5,2.2,1.1,3.2,1.8ZM335,107.4c-1.7-.9-3.3-2.1-5-3.2,1.8,1.2,3.4,2.4,5,3.2ZM323.7,100.8c-1.7-.5-3.5-.5-5.5.1,1.9-.8,3.7-.7,5.5-.1ZM309,117.2c.9-2.1,1.8-4.3,2.7-6.4-1,.5-1.6,1.2-2,1.9.4-.7,1.1-1.4,2-1.9.3-.9.7-1.8,1.1-2.8h0c.9-1.7,1.7-3.4,2.5-5.1.6-.6,1.2-1.1,1.9-1.5,7.2-1.3,23,9,22,14.7.7-1,1-1.8,1.2-2.6-.2.8-.5,1.6-1.2,2.6-.6,1.1-1.3,2.1-1.9,3.1-.5.8-1,1.5-1.6,2.2-.4.7-.8,1.3-1.2,2h.2-.2c-.2.3-.3.5-.5.8h0c-.4.6-.8,1.2-1.2,1.9v.9-.9c-.9,1.4-1.8,2.7-2.7,4.1,1,0,1.6-.4,2-.9-.4.4-1,.8-2,.9-.3.5-.7,1.1-1,1.6-.4.6-.8,1.3-1.2,1.9-.2.9-.4,1.7-.7,2.4.3-.8.5-1.5.7-2.4-2.9,3.7-5.3,7.8-7.7,11.9h0c1.4-1.1,2.6-2.3,3.7-3.7-1.1,1.3-2.3,2.5-3.7,3.7-.4.6-.8,1.3-1.2,1.9h0c-.9,1.5-1.7,2.9-2.5,4.4h0c-.6,1.1-1.3,2.1-1.9,3.2h0c-1,1.3-2.1,2.2-3.3,2.8.7-.4,1.4-.9,2.1-1.5-3.7,2.3-7.2.7-10.7-.7,1.2,1.2,2.3,2,3.5,2.5-1.2-.4-2.5-1.2-3.5-2.5h0c-4.6-2.9-7.3-6.4-3.9-11.9.5-1.5,1-2.9,1.5-4.4h0c2.2-5.4,4.4-10.8,6.5-16.2-.1-.3-.2-.7-.2-1,0,.3.1.6.2.9.8-2,1.5-3.9,2.3-5.9-.6.5-1.1,1-1.6,1.5.4-.5,1-1,1.6-1.5v-1.3,1.1h0l-.1.2h0ZM300.7,136.8c.6-2.7,1.4-5.3,2.5-7.8-1.1,2.5-1.8,5.1-2.5,7.8ZM306.6,95.4c4.3,1.9.3,7.5-.4,10.6v1.4-1.2c-.9,2.2-1.7,4.5-2.5,6.7h0c.8-.6,1.4-1.3,1.8-2.1-.4.8-1,1.4-1.8,2.1-.4,1.1-.8,2.1-1.2,3.2h0c-.4,1.1-.8,2.1-1.2,3.2h0c-.3.6-.5,1.2-.8,1.8h0c-.1.4-.6.8-.5,1.2-.4,1.1-.9,2.2-1.3,3.3h0c-.9,2.1-1.7,4.2-2.6,6.3h0c-.5,1.2-1,2.4-1.5,3.6h0c-.4,1.2-.8,2.2-1.1,3.3h0c-.8,2.1-1.6,4.2-2.5,6.4-.8,1.1-1.7,2-2.8,2.6.3-.2.6-.5,1-.8h-6.9c.8.8,1.7,1.2,2.5,1.4-.9-.2-1.7-.6-2.5-1.4-5.9-1.2-11.8-2.5-17.7-3.7h0c24-20.5,24.6-34.3,3.2-56.8h0c13.5.5,26.5,3.5,38.8,8.9h0ZM250.5,99.1c19.3.4,19.1,27.5.1,29.4-18.2-1.7-19.1-29.8-.1-29.4ZM205.5,91.7c8-1.8,13.8-4.2,21.9-3.3-20,20.3-13.9,38.3,9.9,54.6-7.5,2-25.1,9.9-28.3-1-4.6-11.3-9.2-22.6-13.8-33.8,0,2-1,3.1-2.3,4,2.6-2.1,3-3.7.4-8.4v-.2c-5.3-8.8,5.9-10.9,12.2-11.9h0ZM165.3,109.7c10.2-6.6,5.8-9,19.6-6.7h.1-.1c.3.6.7,1.2,1,1.8,1.4,3.1,2.8,6.2,4.2,9.4,4.4,10.2,7.7,19.8,12.1,30,.3,5.2.9,6.9-2.4,10.3-4.6,2.6-7.5,2.1-14-.5-6.3-10.5-12.6-21.1-18.9-31.6-1.9-3.9-7.5-9.3-1.6-12.7h0ZM185.1,103h0ZM182.6,163.9c0,.4-.3.8-.9,1.1.6-.3.9-.7.9-1.1ZM149.1,121.6c4.4-2.5,8.9-.7,10,2.1,7.4,12,17.4,28.4,22.1,36,0,.7.2,1.3.6,1.9-.1-.2-.3-.4-.4-.7-.3,1.5-.5,2.9-.8,4.4-6.4,8.8-13.1,5-18.3-1.9h0c-.7-.9-1.4-1.8-2.2-2.6-6.7-7.5-13.3-15-20-22.5h0c-6.2-10.4,4.8-12,9-16.8h0v.1h0ZM117.2,157.8c.7-2.3,1.4-4.6,2.1-6.9,4-3.8,5.8-10.8,13.6-8.8,4.2,4.5,8.4,9,12.6,13.4h0c.4.6.9,1,1.3,1.4h-.2c.1.2,1,.8.6.7,2.3,1.9,4.2,4.3,6.3,6.4,3.2,4.4,10.9,9.6,10,15.8-.9,5.7-8.2,9.1-13.1,6.6-.5-.2-1.1-.4-1.6-.5l1.1.2c-2.4-1.9-4.8-3.7-7.1-5.6-1.6-1.3-3.3-2.6-5-3.9h0c-1.1-.9-2.2-1.8-3.2-2.8-.2-.1-.3-.2-.5-.3-1.3-1.1-2.6-2.2-3.8-3.3-.5-.4-.9-.7-1.4-1.1-1.1-.8-2.1-1.6-3.1-2.5h0c-1.2-1.1-2.5-2.1-3.7-3.1-1.5-1.6-3.6-3.8-4.7-6,0,0,0,.1.2.2h0l-.4.1h0ZM101.4,177.6c.7-.9,1.4-1.8,2.2-2.6,1.2-1.9,2.4-3.8,3.7-5.7.5-.6.9-1.2,1.4-1.8.6-.3,1.2-.6,1.7-1,1.2.1,2.4.3,3.7.6,3.6,2.7,7.1,5.4,10.7,8.1h0c1.3,1,2.6,2.1,3.9,3.1,1.5,1.2,3,2.4,4.5,3.7h0c.9.9,1.9,1.4,2.9,1.9-.5-.2-1.1-.4-1.6-.7,2.9,2.4,5.7,4.8,8.6,7.1h0c1.3,1.2,2.6,2.5,3.9,3.7h0c.2.3.4.6.6.9,0,.1,0,.3.1.3,1.9,5.1-.7,10.3-5.7,12.6h-5.1c.3.4.6.7.9,1-.3-.2-.7-.6-1-1.1h-.2c-.5-.1-1-.3-1.5-.6-.8-.4-1.7-.9-2.5-1.3-1.2-.6-2.5-1.3-3.7-2h0c-1.5-.8-3-1.6-4.5-2.4h0c-1.7-.9-3.3-1.7-5-2.6h0c-.3-.2-.6-.3-.9-.6h-.3c-.3-.2-.7-.4-1-.7-.9-.2-1.8-.8-2.6-1.3h-.3c-4.1-2.1-8.1-4.1-12.1-6.2-.4-.3-.7-.6-1.2-.6h0c-3.2-4.9.6-8.9,1.8-13.2-.5.5-1,.9-1.4,1.4h0ZM142.1,207.8c-.6.4-1.2.9-1.8,1.1.6-.3,1.2-.7,1.8-1.1ZM136,215.5c-.3-.4-.8-.7-1.4-.8.9,0,1.2.4,1.4.8ZM89.5,210.8c.3,2-.4,4.2-1.1,6.4.7-2.2,1.4-4.3,1.1-6.4ZM93.3,228.7h-1.3c-2.7-4-3.2-14.4-1.2-22.2-.3.7-.7,1.3-.9,2,.2-.7.6-1.4.9-2.1,2-7.6,6.3-12.8,13.4-7,13.4,8.2,26.2,10.4,32.6,19.1.3,3.3.1,6.7-2.4,8.7-10.7,4.6-27.8.2-41.1,1.4h0s0,.1,0,.1ZM398.6,298.8c-6.3.9-18.5-1.4-22.8,2.5-37.9,112.7-196.6,124.4-243.4,12.2h0c-.1-.4-.7-.8-.6-1.3-3.9-23.6-34.1-3.3-39.2-19.9-3.1-20.3,34.9-5.9,46.2-13.8h0c12.8-7.5,9.6-21.6,11.3-33.2,6.4-40.6,47.5-79.6,88.5-83.7,2.9-.3,3.3.5,3.3,3.2-.1,18.2,0,36.4-.2,54.6,0,1.1-.7,2.8-1.5,3-28.6,10.2-38.1,23.1-39.3,53.6,0,1-.9,2.6-1.8,3-15.5,6.9-18.4,29.5-5.8,41h0c4.2,2.9,9.5,4.3,14.4,5.4,7-.9,14.4-1.3,19.5-6.7,13.2-15.6,7.6-30-7.5-41.8-4.2-26.3,26.6-47.2,48.6-30.9,10.5,7.1,16.2,20.2,12.6,32.2-26.6,15.3-13.4,50.6,15.2,47,22.7-5.3,26.9-35.1,5.8-46.5-4.1-29.8-9.5-46-40.3-56.1-.7-.2-1.5-1.6-1.5-2.4v-56.8c0-2.1.6-2.3,2.5-2.1,48.8,6.1,88.6,50.5,89.1,99.5,0,7,3.1,13.1,8.3,17.6,9.8,3.5,20,2.8,30.3,2.8,7.6.2,20.3-2.2,20,8.8.1,7-5.4,9.3-11.8,8.7h0l.1.1h0Z"/>
              <path class="cls-2" d="M184.7,103.1h0Z"/>
              <polygon class="cls-2" points="302.6 155.9 302.6 155.9 302.6 155.9 302.6 155.9"/>
              <path class="cls-2" d="M90.8,206.5h0c.2-.3.3-.6.4-1-.1.3-.3.6-.4.9h0v.1Z"/>
              <path class="cls-2" d="M184.8,103h-.1.1Z"/>
              <path class="cls-2" d="M184.9,103h-.1.1Z"/>
            </g>
            <g>
              <path class="cls-10" d="M429.5,262.6c-16.1-.1-32.3-.3-48.5-.3-4.8,0-9.4-.1-10.7-5.8-1.4-6,2.3-9.1,7.4-11,11.4-1.3,22.9-1,34.3-.7-11.5-.3-22.9-.6-34.3.7,16.4,0,32.9.1,49.3.2.2-.2.4-.3.6-.5,7.5-.8,8.3-6.1,7.9-11.9C414,14.1,90.5,14.3,67.8,232.2c-.5,5.9,0,11.1,6.7,13.2,13.7.1,27.3.3,40.9.3s12.4.8,12.7,8.4c.3,7.9-5.9,8.4-12,8.3-13.7,0-27.6-.6-41.2,0-17.8,3.6,4.4,55.5,8.7,66.7,8.9,18.9,21,36.3,35.4,51.3.2,0,.3.1.3.3,22.2,22,49.1,38.5,79.1,47.5,6.1,1.9,12.4,3.3,18.7,4.4.1,0,.2,0,.2.1,24,4,48.8,4.4,72.5-.7,1,0,2.1-.3,3.1-.3,27.6-7.1,53.2-18.8,75.2-37.1,4.3-3.5,8.9-7.5,12.6-11.2,1.5-1.5,3-2.9,4.5-4.4.2-.2.4-.4.7-.6,5.5-5.6,10.4-11.8,15.1-18.1,0-.1,0-.2.2-.2,18.1-24.3,29.3-52.7,33.8-82.6.9-5.9,1.4-11.8-5.5-14.9h0ZM413.3,218.3c3.6,15.8-13.2,11.1-22.7,11-7.1,0-27.4,3.2-24.1-10.4,1.4-5.9,10.1-8.2,14.7-10.5,6.6-3.3,13.2-6.7,19.8-9.9,11.1-5.4,11.8,12.4,12.3,19.8h0ZM392.1,166.4c6.5,4.2,8.4,11.5,10.8,18.2,1.4,4-2.9,5.4-5.6,6.9-10,5.4-19.9,11.1-30.2,15.7-7.9,3.6-10.9-2.1-12.5-7.8,0-4.1,1.9-6.3,4.2-8.2,9.8-7.9,19.6-15.8,29.5-23.7,1-.8,3-1.6,3.7-1.1h.1ZM386.8,155.1c0-1.2-.6-2.3-1.9-3,1.2.7,1.8,1.8,1.9,3ZM376.5,142.9h0c0-.4-.2-.7-.4-.9.1.3.3.6.4.9.2.2.4.4.6.6.7.6,1.3,1.2,1.9,1.9.2.2.4.4.7.6,1.5,1.9,3,3.8,4.4,5.7,1.2,2.6,3.1,5.2.6,8.1-.2.2-.4.4-.6.7l-.6.6c-.2.2-.4.4-.6.6-1.3,1-2.5,2.1-3.8,3.1-1.4,1.4-3,2.5-4.4,3.8-1,.9-2.1,1.7-3.1,2.6-.2.2-.4.4-.7.6-1,.8-2.1,1.6-3.1,2.5-.2.2-.5.4-.7.6-1.1.8-2.1,1.6-3.2,2.6-.5.3-.9.7-1.4,1.1-.9.6-1.7,1.3-2.5,2-1,.9-2.1,1.7-3.1,2.6-.2.2-.5.4-.7.6-1.9,1.3-3.8,2.5-5.7,3.8h-5c-1.5-1-3-2.1-4.4-3.1-.2-.2-.4-.4-.6-.7-5.1-9.1,3.4-12.9,7.2-18.6.5-.9,1.1-1.8,1.7-2.7-.6.9-1.1,1.7-1.6,2.6,4.8-5.1,9.5-10.2,14.3-15.4-2.1,1.5-4.1,3.1-5.9,4.8,1.8-1.7,3.8-3.3,5.9-4.8,1-1.1,2.1-2.1,3.1-3.2,3.4-2.5,5.8-7.7,11.3-3.7v.1h0ZM342.3,161h1-1ZM357.7,145.7c.6-.8,1-1.7,1.2-2.9-.1,1.2-.6,2.1-1.2,2.9ZM371.3,140.6c-1.8.5-3.6,1.7-4.8,3.1,1.2-1.4,3-2.6,4.8-3.1ZM366.6,133.1c.1.7-.3,1.6-1.5,2.7,1.1-1.1,1.6-1.9,1.5-2.7ZM344.3,120.8c-.2.2-.4.4-.6.7.2-.2.4-.5.6-.7ZM342.5,125.1c1.5-1.8,3.1-3.6,4.6-5.4,1.8.2,3.6.3,5.4.4.8.6,1.7,1.3,2.5,1.9.2.2.5.4.7.6,1.6.2,2.8.7,3.6,1.4-1-.7-2.2-1.2-3.6-1.4,2.1,1.9,4.3,3.8,6.4,5.6-.1-.4-.2-.7-.4-1.1.3.5.6,1.1,1,1.7.6.7,1.3,1.3,2.1,1.9-.3-.2-.6-.4-.9-.6.4,1.9.9,3.7,1.3,5.6-.6.8-1.3,1.7-1.9,2.5-.2.2-.4.4-.6.7-.2.2-.4.4-.6.6-1,1.1-2.1,2.1-3.1,3.2-1.7,1.9-3.4,3.8-5.1,5.6.3-.1.6-.3.9-.4-.5.3-1,.7-1.5,1.1-2.4,2.6-4.8,5.3-7.2,7.9-.4.4-.8.9-1.2,1.3-.8.9-1.6,1.8-2.4,2.6-1.4,1.7-2.9,3.5-4.3,5.2-.2.2-.4.5-.6.7-1.1,1-2.1,2-3.2,3.1-3.8,1.6-7.3,1-10.6-1.3-.2-.2-.5-.4-.7-.6-5.4-6.4-.4-11.2,2.4-16.3.2-.7.5-1.4.7-2.1-.3.7-.5,1.4-.7,2.1,2.3-3.6,4.6-7.1,7-10.7-1.2,1.1-2.3,2.2-3.2,3.4,1-1.2,2-2.3,3.2-3.4.4-.6.9-1.3,1.3-1.9.5-.8,1-1.6,1.4-2.4.6-.9,1.1-1.8,1.7-2.7.3-.4.5-.8.8-1.2.4-.6.8-1.2,1.2-1.9.4-.6.9-1.3,1.3-1.9.4-.6.9-1.3,1.3-1.9s.8-1.3,1.2-1.9h-.2,0ZM337.5,178.1c0-.3.1-.6.2-1,0,.3-.1.6-.2,1ZM336.5,169.3c-.1,0-.2.2-.4.2.1,0,.2-.2.4-.2ZM339,109.3c-1-.7-2.2-1.3-3.2-1.8,1,.5,2.2,1.1,3.2,1.8ZM335.7,107.5c-1.7-.9-3.3-2.1-5-3.2,1.8,1.2,3.4,2.4,5,3.2ZM324.5,100.9c-1.7-.5-3.5-.5-5.5.1,1.9-.8,3.7-.7,5.5-.1ZM309.7,117.3c.9-2.1,1.8-4.3,2.7-6.4-1,.5-1.6,1.2-2,1.9.4-.7,1.1-1.4,2-1.9.3-.9.7-1.8,1.1-2.8.9-1.7,1.7-3.4,2.5-5.1.6-.6,1.2-1.1,1.9-1.5,7.2-1.3,23,9,22,14.7.7-1,1-1.8,1.2-2.6-.2.8-.5,1.6-1.2,2.6-.6,1.1-1.3,2.1-1.9,3.1-.5.8-1,1.5-1.6,2.2-.4.7-.8,1.3-1.2,2h.2-.2c-.2.3-.3.5-.5.8-.4.6-.8,1.2-1.2,1.9v.9-.9c-.9,1.4-1.8,2.7-2.7,4.1,1,0,1.6-.4,2-.9-.4.4-1,.8-2,.9-.3.5-.7,1.1-1,1.6-.4.6-.8,1.3-1.2,1.9-.2.9-.4,1.7-.7,2.4.3-.8.5-1.5.7-2.4-2.9,3.7-5.3,7.8-7.7,11.9,1.4-1.1,2.6-2.3,3.7-3.7-1.1,1.3-2.3,2.5-3.7,3.7-.4.6-.8,1.3-1.2,1.9-.9,1.5-1.7,2.9-2.5,4.4-.6,1.1-1.3,2.1-1.9,3.2-1,1.3-2.1,2.2-3.3,2.8.7-.4,1.4-.9,2.1-1.5-3.7,2.3-7.2.7-10.7-.7,1.2,1.2,2.3,2,3.5,2.5-1.2-.4-2.5-1.2-3.5-2.5-4.6-2.9-7.3-6.4-3.9-11.9.5-1.5,1-2.9,1.5-4.4,2.2-5.4,4.4-10.8,6.5-16.2-.1-.3-.2-.7-.2-1,0,.3.1.6.2.9.8-2,1.5-3.9,2.3-5.9-.6.5-1.1,1-1.6,1.5.4-.5,1-1,1.6-1.5v-1.3,1.1l-.1.2h0ZM301.4,136.9c.6-2.7,1.4-5.3,2.5-7.8-1.1,2.5-1.8,5.1-2.5,7.8ZM307.4,95.5c4.3,1.9.3,7.5-.4,10.6v1.4-1.2c-.9,2.2-1.7,4.5-2.5,6.7.8-.6,1.4-1.3,1.8-2.1-.4.8-1,1.4-1.8,2.1-.4,1.1-.8,2.1-1.2,3.2-.4,1.1-.8,2.1-1.2,3.2-.3.6-.5,1.2-.8,1.8-.1.4-.6.8-.5,1.2-.4,1.1-.9,2.2-1.3,3.3-.9,2.1-1.7,4.2-2.6,6.3-.5,1.2-1,2.4-1.5,3.6-.4,1.2-.8,2.2-1.1,3.3-.8,2.1-1.6,4.2-2.5,6.4-.8,1.1-1.7,2-2.8,2.6.3-.2.6-.5,1-.8h-6.9c.8.8,1.7,1.2,2.5,1.4-.9-.2-1.7-.6-2.5-1.4-5.9-1.2-11.8-2.5-17.7-3.7,24-20.5,24.6-34.3,3.2-56.8,13.5.5,26.5,3.5,38.8,8.9ZM251.2,99.2c19.3.4,19.1,27.5.1,29.3-18.2-1.7-19.1-29.8-.1-29.3ZM206.2,91.8c8-1.8,13.8-4.2,21.9-3.3-20,20.3-13.9,38.3,9.9,54.6-7.5,2-25.1,9.9-28.3-1-4.6-11.3-9.2-22.6-13.8-33.8,0,2-1,3.1-2.3,4,2.6-2.1,3-3.7.4-8.4v-.2c-5.3-8.8,5.9-10.9,12.2-11.9h0ZM166,109.8c10.2-6.6,5.8-9,19.6-6.7h.1-.1c.3.6.7,1.2,1,1.8,1.4,3.1,2.8,6.2,4.2,9.4,4.4,10.2,7.7,19.8,12.1,30,.3,5.2.9,6.9-2.4,10.3-4.6,2.6-7.5,2.1-14-.5-6.3-10.5-12.6-21.1-18.9-31.6-1.9-3.9-7.5-9.3-1.6-12.7h0ZM185.9,103.1h0ZM183.3,163.9c0,.4-.3.8-.9,1.1.6-.3.9-.7.9-1.1ZM149.8,121.7c4.4-2.5,8.9-.7,10,2.1,7.4,12,17.4,28.4,22.1,36,0,.7.2,1.3.6,1.9-.1-.2-.3-.4-.4-.7-.3,1.5-.5,2.9-.8,4.4-6.4,8.8-13.1,5-18.3-1.9-.7-.9-1.4-1.8-2.2-2.6-6.7-7.5-13.3-15-20-22.5-6.2-10.4,4.8-12,9-16.8v.1h0ZM117.9,157.9c.7-2.3,1.4-4.6,2.1-6.9,4-3.8,5.8-10.8,13.6-8.8,4.2,4.5,8.4,9,12.6,13.4.4.6.9,1,1.3,1.4h-.2c.1.2,1,.8.6.7,2.3,1.9,4.2,4.3,6.3,6.4,3.2,4.4,10.9,9.6,10,15.8-.9,5.7-8.2,9.1-13.1,6.6-.5-.2-1.1-.4-1.6-.5l1.1.2c-2.4-1.9-4.8-3.7-7.1-5.6-1.6-1.3-3.3-2.6-5-3.9-1.1-.9-2.2-1.8-3.2-2.8-.2-.1-.3-.2-.5-.3-1.3-1.1-2.6-2.2-3.8-3.3-.5-.4-.9-.7-1.4-1.1-1.1-.8-2.1-1.6-3.1-2.5-1.2-1.1-2.5-2.1-3.7-3.1-1.5-1.6-3.6-3.8-4.7-6,0,0,0,.1.2.2l-.4.1h0ZM102.1,177.7c.7-.9,1.4-1.8,2.2-2.6,1.2-1.9,2.4-3.8,3.7-5.7.5-.6.9-1.2,1.4-1.8.6-.3,1.2-.6,1.7-1,1.2.1,2.4.3,3.7.6,3.6,2.7,7.1,5.4,10.7,8.1,1.3,1,2.6,2.1,3.9,3.1,1.5,1.2,3,2.4,4.5,3.7.9.9,1.9,1.4,2.9,1.9-.5-.2-1.1-.4-1.6-.7,2.9,2.4,5.7,4.8,8.6,7.1,1.3,1.2,2.6,2.5,3.9,3.7.2.3.4.6.6.9,0,.1,0,.3.1.3,1.9,5.1-.7,10.3-5.7,12.6h-5.1c.3.4.6.7.9,1-.3-.2-.7-.6-1-1.1h-.2c-.5-.1-1-.3-1.5-.6-.8-.4-1.7-.9-2.5-1.3-1.2-.6-2.5-1.3-3.7-2-1.5-.8-3-1.6-4.5-2.4-1.7-.9-3.3-1.7-5-2.6-.3-.2-.6-.3-.9-.6h-.3c-.3-.2-.7-.4-1-.7-.9-.2-1.8-.8-2.6-1.3h-.3c-4.1-2.1-8.1-4.1-12.1-6.2-.4-.3-.7-.6-1.2-.6-3.2-4.9.6-8.9,1.8-13.2-.5.5-1,.9-1.4,1.4h0ZM142.8,207.9c-.6.4-1.2.9-1.8,1.1.6-.3,1.2-.7,1.8-1.1ZM136.7,215.6c-.3-.4-.8-.7-1.4-.8.9,0,1.2.4,1.4.8ZM90.2,210.9c.3,2-.4,4.2-1.1,6.4.7-2.2,1.4-4.3,1.1-6.4ZM94,228.8h-1.3c-2.7-4-3.2-14.4-1.2-22.2-.3.7-.7,1.3-.9,2,.2-.7.6-1.4.9-2.1,2-7.6,6.3-12.8,13.4-7,13.4,8.2,26.2,10.4,32.6,19.1.3,3.3.1,6.7-2.4,8.7-10.7,4.6-27.8.2-41.1,1.4v.1ZM399.3,298.9c-6.3.9-18.5-1.4-22.8,2.5-37.9,112.7-196.6,124.4-243.4,12.2-.1-.4-.7-.8-.6-1.3-3.9-23.6-34.1-3.3-39.2-19.9-3.1-20.3,34.9-5.9,46.2-13.8,12.8-7.5,9.6-21.6,11.3-33.2,6.4-40.6,47.5-79.6,88.5-83.7,2.9-.3,3.3.5,3.3,3.2-.1,18.2,0,36.4-.2,54.6,0,1.1-.7,2.8-1.5,3-28.6,10.2-38.1,23.1-39.3,53.6,0,1-.9,2.6-1.8,3-15.5,6.9-18.4,29.5-5.8,41,4.2,2.9,9.5,4.3,14.4,5.4,7-.9,14.4-1.3,19.5-6.7,13.2-15.6,7.6-30-7.5-41.8-4.2-26.3,26.6-47.2,48.6-30.9,10.5,7.1,16.2,20.2,12.6,32.2-26.6,15.3-13.4,50.6,15.2,47,22.7-5.3,26.9-35.1,5.8-46.5-4.1-29.8-9.5-46-40.3-56.1-.7-.2-1.5-1.6-1.5-2.4v-56.8c0-2.1.6-2.3,2.5-2.1,48.8,6.1,88.6,50.5,89.1,99.5,0,7,3.1,13.1,8.3,17.6,9.8,3.5,20,2.8,30.3,2.8,7.6.2,20.3-2.2,20,8.8.1,7-5.4,9.3-11.8,8.7l.1.1h0Z"/>
              <path class="cls-12" d="M303.3,156.1h0Z"/>
              <path class="cls-12" d="M91.5,206.6h0c.2-.3.3-.6.4-1-.1.3-.3.6-.4.9v.1Z"/>
              <path class="cls-12" d="M185.5,103.1h-.1.1Z"/>
              <path class="cls-12" d="M185.6,103.1h-.1.1Z"/>
            </g>
          </g>
        </g>
      </g>
    </g>
  </g>
</svg>