<?xml version="1.0" encoding="UTF-8"?>
<svg xmlns="http://www.w3.org/2000/svg" version="1.1" viewBox="0 0 500 500">
  <defs>
    <style>
      .cls-1 {
        fill: #50a2fa;
      }

      .cls-2 {
        fill: #563769;
      }

      .cls-3 {
        fill: #f69240;
      }

      .cls-4 {
        fill: #eb5e1d;
      }

      .cls-5 {
        fill: #65e9dd;
      }

      .cls-6 {
        opacity: .41;
      }

      .cls-7 {
        fill: #f8d49a;
      }

      .cls-8 {
        fill: #83faaf;
      }

      .cls-9 {
        fill: #6f32d8;
      }
    </style>
  </defs>
  <!-- Generator: Adobe Illustrator 28.7.3, SVG Export Plug-In . SVG Version: 1.2.0 Build 164)  -->
  <g>
    <g id="Layer_1">
      <g class="cls-6">
        <g>
          <path class="cls-3" d="M357.58,185.55c-15.53,18.42-39.47-5.15-20.91-19.37,9.16-6.06,30.46-42.47,43.35-31.67,27.25,22.82-13.33,41.68-22.44,51.05Z"/>
          <path class="cls-7" d="M315.75,99.19c-7.76,12.98-15.97,31.82-21.73,45.96-6.35,9.04,13.7,20.26,19.89,13.42,3.19-5.44,13.39-17.14,16.65-22.7,3.56-6.65,25.29-32.64-14.81-36.67Z"/>
          <path class="cls-7" d="M310.28,100.51c-3.92,11.1-12.34,31.38-16.26,42.4-2.29,15.15-27.03,5.81-37.01,4.92,23.98-20.53,27.86-41.23,6.26-63.91,11.54,2.32,55.98-1.82,47,16.59Z"/>
          <path class="cls-1" d="M106.38,157.78c8.86-5.16,22.46,13.17,26.96,17.49,13.44,13.42.26-2.81,9.24,15.13,12.64,8.76,11.93,22.32-5.89,21.67-7.6-3.3-14.67-7.23-22.4-10.13-22.9-8.56-24.56-23.92-7.91-44.17Z"/>
          <path class="cls-5" d="M187.32,161.45c-7.08,29.96-43.31-7.22-54.4-24.5-6.59-10.26,10.98-17.05,16.94-19.3,14.85-5.59,15.32,16.95,37.46,43.79Z"/>
          <path class="cls-9" d="M140.58,222.01"/>
          <path class="cls-9" d="M69.58,239.7c.17.24,25.61-46.37,25.71-46.64,1.1-2.94-22.55,8.35-20.31,6.84.14.02.24-.27.34-.48.05-.11.15-.19.27-.21,3.07-.54,6.17,1.32,8.95,2.2.02,0,.04.02.07.03,2.66,1.45-1.01-.27,1.7,1.08.18.09,8.01-21.42,7.9-7.45l-11.43,6.18c4.11-5.83-23.63,5.04-.55-1.82,48.81-14.51,60.04,28.3,60.34,28.19"/>
          <path class="cls-9" d="M133.65,230.58c-.92.6-.8-.54-1.65-.05-.06.03-.12.05-.19.05-12.78,0-29.46,2.9-42.03,1.38-.27-.03-.41-.33-.27-.57l1.53-2.5c.08-.12.07-.28,0-.4"/>
          <path class="cls-8" d="M187.32,99.19c-3.42-8.33,12.34-11.3,17.77-12.53,55.99-18.91-12.57,27.86,37.56,55.55-7.47,1.99-31.47,16.51-34.62,5.62-5.35-14.9-20.84-34.5-20.72-48.64Z"/>
          <path class="cls-8" d="M166.29,124.34c-1.96-3.86-15.21-15.08-9.25-18.41,6.06-3.25,22.95-7.94,31.67-3.61,4.11,13.3,31.94,69.01-3.46,53.6-6.32-10.53-12.64-21.06-18.95-31.58Z"/>
          <path class="cls-7" d="M301.99,156.09s0,0-.01,0h0s.02,0,.02,0Z"/>
          <path class="cls-5" d="M144.02,151.1c-9.45-11.43-21.95-23.17-32.16-.25-5.82,13.07,32.18,42.89,50.19,39.52,18.69-3.49-6.89-31.88-18.03-39.27Z"/>
          <path class="cls-7" d="M267.17,86.63c-.06-.07-.12-.14-.17-.2.04.08.09.16.13.24,0,0,.05-.03.05-.03Z"/>
          <path class="cls-3" d="M369.98,131.05c-7.2,16.5-25.26,28.8-37.28,42.72-31.53,2.65-1.48-37.46,3.84-48.06,10.94-21.79,22.3,1.78,27.61-.56,1.28-.56,4.62,5.67,5.84,5.9Z"/>
          <path class="cls-9" d="M390.33,232.32c-21.46,5.01-40.52-6.16-17.31-23.26,27.19-20.02,43.43-19.45,42.35,9.26,3.7,15.93-15.85,13.79-25.04,13.99Z"/>
          <path class="cls-4" d="M347.79,198.96c4.95-13.55,30.44-29.13,42.35-36.55,6.63,5.1,23.08,26.13,11.11,29.9-11.96,3.83-44.29,31.17-53.46,6.65Z"/>
        </g>
      </g>
      <g>
        <path class="cls-2" d="M428.81,262.54c-16.15-.12-32.3-.34-48.45-.3-4.8,0-9.41-.13-10.7-5.77-1.37-6,2.3-9.12,7.43-10.99,11.41-1.3,22.87-1.01,34.32-.67-11.46-.33-22.91-.63-34.32.67,16.43.06,32.86.11,49.3.17.22-.17.43-.34.65-.51,7.48-.77,8.3-6.13,7.89-11.94C413.33,14.05,89.75,14.23,67.13,232.06c-.52,5.9-.04,11.05,6.66,13.19,13.65.1,27.29.27,40.93.27,6.23,0,12.4.79,12.69,8.44.3,7.87-5.86,8.41-11.98,8.33-13.73.06-27.55-.63-41.24.06-17.77,3.56,4.37,55.48,8.67,66.7,8.95,18.87,21.02,36.26,35.43,51.34.19,0,.29.1.28.29,22.24,22.02,49.09,38.45,79.07,47.47h0c6.13,1.85,12.39,3.26,18.69,4.37.13-.05.21-.01.25.11,24.02,3.99,48.77,4.4,72.55-.67l-.03.03c1.05-.1,2.1-.35,3.15-.32,27.62-7.08,53.21-18.82,75.25-37.1,4.31-3.49,8.85-7.46,12.64-11.17,1.5-1.45,2.97-2.94,4.47-4.4.22-.22.44-.44.66-.65l-.03.02c5.49-5.65,10.42-11.79,15.1-18.13-.01-.14.05-.22.19-.24,18.15-24.26,29.34-52.71,33.75-82.58.91-5.85,1.35-11.78-5.49-14.88ZM412.58,218.21c3.65,15.77-13.25,11.13-22.69,11.02v.09c-7.12,0-27.35,3.14-24.09-10.44,1.4-5.85,10.06-8.17,14.69-10.51,6.58-3.33,13.17-6.67,19.81-9.91,11.06-5.38,11.81,12.37,12.28,19.75ZM391.35,166.24c6.55,4.21,8.42,11.5,10.8,18.17,1.42,3.97-2.85,5.44-5.59,6.93-9.97,5.41-19.85,11.05-30.17,15.73-7.9,3.58-10.85-2.08-12.48-7.79,0-4.14,1.9-6.34,4.25-8.24,9.82-7.92,19.64-15.84,29.53-23.66.97-.76,2.95-1.59,3.66-1.14ZM386.03,154.95c-.07-1.19-.63-2.28-1.87-2.97,1.24.69,1.8,1.78,1.87,2.97ZM375.8,142.77s0-.01,0-.02c-.09-.35-.22-.66-.37-.93.15.27.27.58.37.93.21.21.41.43.62.64.69.57,1.33,1.21,1.9,1.92l-.03-.03c.22.22.44.44.66.67,0,0-.02,0-.03,0h0c1.48,1.89,2.95,3.79,4.43,5.68h0c1.16,2.62,3.12,5.18.63,8.08h.03c-.21.21-.42.44-.64.66-.21.21-.42.42-.62.62-.22.21-.44.42-.65.63,0,0,0-.01,0-.02-1.26,1.06-2.53,2.12-3.79,3.17h.01c-1.37,1.37-2.98,2.47-4.42,3.76-1.05.86-2.1,1.72-3.15,2.58-.22.21-.44.41-.66.62v-.02c-1.04.85-2.12,1.66-3.15,2.55h0c-.24.19-.48.4-.72.6l.03-.06c-1.08.84-2.14,1.7-3.17,2.61l.03-.05c-.46.4-.93.79-1.39,1.19l.08-.04c-.9.61-1.72,1.3-2.5,2.05,0,0,0-.02-.01-.02-1.03.85-2.06,1.71-3.09,2.57-.23.21-.46.42-.69.63v-.03s0,0,.01,0c-1.9,1.27-3.79,2.54-5.68,3.82,0,0,.01-.02.02-.03h-4.95s0,.01.02.02c-1.48-1.04-2.96-2.07-4.44-3.11-.22-.22-.42-.45-.64-.67h.01c-5.07-9.08,3.36-12.94,7.16-18.6.52-.92,1.08-1.81,1.66-2.68-.56.85-1.1,1.73-1.61,2.63,4.76-5.12,9.52-10.25,14.27-15.38-2.12,1.46-4.1,3.05-5.94,4.77,1.83-1.73,3.81-3.32,5.94-4.77h-.01c1.01-1.11,2.11-2.13,3.12-3.25,3.36-2.49,5.84-7.69,11.32-3.69ZM341.56,160.87c.38.05.72.07,1.02.05-.3.02-.64,0-1.02-.05ZM356.95,145.61c.59-.78,1.01-1.72,1.22-2.85-.15,1.22-.6,2.12-1.22,2.85ZM370.57,140.5c-1.8.53-3.63,1.72-4.81,3.12,1.18-1.4,3.02-2.6,4.81-3.12ZM365.89,133.01c.11.74-.26,1.6-1.47,2.71,1.15-1.06,1.56-1.94,1.47-2.71ZM343.58,120.73c-.23.2-.42.42-.6.66.18-.24.37-.46.6-.66ZM341.73,125.03c1.54-1.8,3.08-3.59,4.62-5.39,1.8.15,3.61.3,5.41.44.83.63,1.66,1.26,2.5,1.89l-.04-.06c.24.21.47.43.71.64,1.63.24,2.76.74,3.63,1.44-1-.71-2.22-1.19-3.63-1.44h-.02c2.13,1.87,4.26,3.75,6.39,5.62-.1-.38-.22-.74-.35-1.07.31.54.63,1.11.98,1.72h0c.56.69,1.34,1.28,2.07,1.86-.29-.19-.59-.38-.91-.56.44,1.87.88,3.74,1.33,5.61-.63.84-1.26,1.69-1.89,2.53l.02-.02c-.2.23-.41.45-.62.68-.2.21-.41.43-.62.64h0c-1.04,1.05-2.07,2.11-3.08,3.18l-.05.05c-1.72,1.86-3.43,3.73-5.15,5.59.32-.13.63-.26.93-.41-.51.33-1.02.67-1.49,1.05-2.41,2.63-4.82,5.26-7.23,7.89-.4.45-.82.88-1.23,1.32l-.05.05c-.8.86-1.59,1.72-2.4,2.58h0s0,0,0,0c-1.43,1.73-2.85,3.46-4.28,5.18-.2.24-.41.47-.62.71-1.07,1.02-2.14,2.04-3.22,3.05h0c-3.77,1.56-7.28.96-10.59-1.28l.02.04c-.23-.22-.45-.44-.68-.65h.02c-5.44-6.37-.37-11.19,2.44-16.34.2-.72.45-1.42.71-2.1-.26.67-.5,1.36-.69,2.07,2.33-3.57,4.65-7.13,6.98-10.7h0c-1.21,1.05-2.3,2.17-3.25,3.38.95-1.21,2.03-2.33,3.25-3.37.43-.63.85-1.26,1.28-1.89h0c.48-.8.96-1.6,1.44-2.41l-.04.02c.58-.9,1.15-1.8,1.73-2.7.26-.41.51-.81.77-1.22l-.04.07c.4-.66.81-1.32,1.21-1.98.43-.63.85-1.26,1.28-1.88h-.01c.42-.62.85-1.26,1.27-1.9h-.01c.42-.63.84-1.27,1.25-1.91ZM336.83,177.96c.04-.33.11-.65.2-.96-.08.31-.15.64-.2.96ZM335.77,169.22c-.11.09-.22.18-.35.25.13-.07.24-.16.35-.25ZM338.28,109.19c-1-.7-2.19-1.26-3.25-1.79,1.05.53,2.25,1.09,3.25,1.79ZM335.02,107.39c-1.71-.87-3.33-2.06-4.97-3.21,1.75,1.19,3.42,2.41,4.97,3.21ZM323.74,100.8c-1.69-.46-3.52-.51-5.54.14,1.85-.78,3.71-.71,5.54-.14ZM309,117.21c.9-2.14,1.8-4.28,2.7-6.42-.96.51-1.62,1.15-2.05,1.89.42-.74,1.06-1.38,2.05-1.89.27-.95.74-1.85,1.08-2.78l-.03.03c.85-1.7,1.69-3.4,2.54-5.1.62-.61,1.25-1.1,1.87-1.49,7.23-1.31,23,8.97,21.99,14.66.67-.98,1.05-1.84,1.22-2.6-.17.77-.55,1.64-1.23,2.62-.63,1.05-1.26,2.09-1.89,3.13-.52.75-1.04,1.49-1.56,2.24-.38.67-.81,1.31-1.21,1.97l.16.03h-.17c-.17.26-.33.52-.5.78l.02-.03c-.42.63-.84,1.26-1.25,1.89,0,.3,0,.61-.02.91,0-.28,0-.58,0-.87-.9,1.37-1.81,2.73-2.71,4.1.95-.09,1.57-.4,1.97-.85-.4.45-1.02.76-1.97.85-.33.54-.67,1.08-1,1.61-.38.65-.79,1.28-1.18,1.93-.2.85-.44,1.66-.73,2.45.27-.75.49-1.54.67-2.35-2.9,3.73-5.32,7.78-7.66,11.89,0,0,.01-.01.02-.02,1.38-1.12,2.61-2.34,3.68-3.66-1.06,1.33-2.29,2.54-3.68,3.66-.41.65-.81,1.3-1.22,1.95h0c-.85,1.46-1.7,2.94-2.55,4.42h0c-.63,1.05-1.26,2.11-1.89,3.16h0c-1.01,1.26-2.14,2.19-3.33,2.76.69-.36,1.39-.85,2.1-1.48-3.72,2.28-7.21.67-10.71-.66,1.16,1.18,2.34,2.01,3.55,2.47-1.24-.43-2.45-1.25-3.55-2.47,0,0,0,0-.01,0-4.58-2.9-7.27-6.42-3.94-11.94.49-1.46.98-2.91,1.48-4.37,0-.03.01-.05.02-.08,2.18-5.39,4.36-10.78,6.54-16.17-.12-.35-.2-.68-.24-1,.04.3.12.61.23.93.77-1.97,1.54-3.93,2.3-5.9-.61.47-1.14.96-1.57,1.5.42-.54.96-1.04,1.57-1.5-.02-.45-.03-.9-.03-1.34,0,.37.03.75.08,1.14ZM300.71,136.81c.62-2.66,1.36-5.28,2.46-7.75-1.1,2.47-1.84,5.09-2.46,7.75ZM306.63,95.44c4.3,1.94.34,7.51-.37,10.61.03.47.05.94.03,1.39,0-.39-.03-.78-.08-1.19-.85,2.23-1.7,4.46-2.55,6.68,0,0,.02-.01.03-.02.78-.62,1.37-1.31,1.79-2.06-.41.75-.98,1.45-1.79,2.06-.42,1.06-.83,2.12-1.25,3.18l.02-.02c-.42,1.07-.84,2.14-1.25,3.21l.02-.03c-.26.62-.52,1.24-.78,1.85l.04-.05c-.11.45-.59.82-.52,1.28-.43,1.08-.85,2.17-1.28,3.26l.02-.02c-.86,2.1-1.72,4.21-2.58,6.31,0,0,0,0,.02,0-.51,1.2-1.02,2.4-1.53,3.6l.02.1c-.38,1.08-.76,2.15-1.14,3.22l.05-.03c-.82,2.14-1.65,4.28-2.47,6.42-.76,1.08-1.73,2.02-2.79,2.64.33-.22.65-.47.98-.78-2.31,0-4.62,0-6.93.01.84.75,1.68,1.23,2.51,1.45-.86-.17-1.71-.63-2.51-1.45-5.9-1.24-11.79-2.47-17.69-3.7h0c24.04-20.5,24.61-34.31,3.19-56.84h0c13.5.52,26.47,3.46,38.81,8.92ZM250.53,99.05c19.31.42,19.08,27.53.12,29.35-18.23-1.73-19.14-29.77-.12-29.35ZM205.48,91.7c7.97-1.81,13.79-4.23,21.9-3.31-19.97,20.29-13.91,38.33,9.89,54.63-7.46,1.99-25.12,9.93-28.26-.96-4.6-11.28-9.19-22.56-13.79-33.85.03,2-1.04,3.07-2.3,3.97,2.59-2.09,3.02-3.66.4-8.36l.05-.19c-5.38-8.8,5.85-10.95,12.13-11.95ZM165.31,109.74c10.22-6.62,5.84-9.03,19.62-6.71.03,0,.07,0,.1,0-.03,0-.06,0-.1,0,.34.61.69,1.22,1.03,1.84,1.39,3.12,2.78,6.24,4.16,9.37,4.36,10.21,7.72,19.77,12.08,29.98.27,5.16.91,6.88-2.39,10.28-4.64,2.56-7.54,2.06-13.98-.51-6.32-10.53-12.64-21.05-18.95-31.58-1.95-3.86-7.53-9.35-1.58-12.67ZM185.15,103.02c.07,0,.09,0,0,0h0ZM182.55,163.85c-.03.43-.28.81-.93,1.15.61-.33.88-.72.93-1.15ZM149.09,121.64c4.35-2.46,8.95-.72,10.03,2.1,7.36,12.01,17.39,28.38,22.08,36.03-.04.68.24,1.33.55,1.95-.14-.22-.29-.45-.43-.67-.26,1.46-.53,2.91-.79,4.37-6.42,8.77-13.08,4.97-18.26-1.88h0c-.7-.89-1.44-1.75-2.17-2.63-6.67-7.49-13.34-14.98-20.01-22.46h0c-6.16-10.42,4.81-12.01,8.99-16.81ZM117.24,157.83c.71-2.29,1.42-4.58,2.13-6.88,3.99-3.75,5.83-10.83,13.58-8.79,4.19,4.48,8.38,8.96,12.57,13.44l-.07.11c.42.44.85.87,1.28,1.31l-.17.03c.13.17.97.81.58.69,2.33,1.86,4.18,4.28,6.3,6.37,3.24,4.35,10.94,9.65,9.97,15.84-.93,5.69-8.24,9.12-13.11,6.59-.51-.22-1.05-.39-1.59-.54.36.08.72.16,1.08.24-2.37-1.86-4.75-3.73-7.12-5.59-1.64-1.33-3.33-2.6-4.98-3.92l.02.02c-1.08-.94-2.17-1.87-3.25-2.81-.17-.11-.34-.22-.52-.33-1.27-1.1-2.55-2.2-3.82-3.31-.46-.36-.9-.72-1.36-1.08-1.05-.82-2.09-1.65-3.14-2.47l-.06-.05c-1.25-1.03-2.49-2.06-3.74-3.09-1.48-1.59-3.58-3.81-4.73-6.03.05.08.09.15.15.23ZM101.41,177.62c.68-.87,1.42-1.75,2.18-2.65,1.22-1.91,2.44-3.83,3.67-5.74.46-.59.92-1.18,1.39-1.77.58-.32,1.16-.64,1.74-.97,1.18.11,2.44.3,3.71.59,3.56,2.68,7.12,5.36,10.68,8.05h.01c1.32,1.01,2.58,2.1,3.9,3.11,1.49,1.22,2.98,2.44,4.47,3.67,0,0,0,0,0,0,.85.85,1.88,1.43,2.95,1.93-.53-.22-1.06-.45-1.56-.71,2.87,2.38,5.74,4.76,8.61,7.13,0,0,0-.01,0-.02,1.29,1.24,2.58,2.49,3.86,3.73,0,0,0-.02,0-.03.2.29.41.59.62.88-.08.15-.05.27.11.34,1.93,5.15-.66,10.33-5.7,12.59-1.69.02-3.38.03-5.07.05.29.43.58.74.86.96-.34-.24-.68-.6-1.03-1.1l-.21.05c-.49-.2-.99-.4-1.48-.6-.83-.45-1.66-.89-2.51-1.32-1.24-.65-2.47-1.31-3.71-1.96v.04c-1.5-.82-3-1.64-4.51-2.46h0c-1.67-.85-3.35-1.71-5.02-2.58,0,.01,0,.02,0,.04-.3-.2-.63-.38-.9-.62h-.26c-.32-.22-.71-.36-.96-.66-.88-.2-1.79-.78-2.57-1.26-.1,0-.2-.02-.31-.03-4.05-2.07-8.1-4.14-12.14-6.22-.38-.27-.74-.62-1.23-.64h0c-3.22-4.95.6-8.92,1.83-13.25-.52.47-1,.95-1.44,1.43ZM142.05,207.75c-.59.45-1.17.87-1.75,1.14.58-.29,1.17-.73,1.75-1.14ZM135.99,215.54c-.28-.43-.75-.69-1.44-.77.85.07,1.24.36,1.44.77ZM89.53,210.8c.35,2.03-.37,4.19-1.08,6.36.71-2.16,1.43-4.33,1.08-6.36ZM93.28,228.69h-1.3c-2.72-4.02-3.24-14.38-1.24-22.17-.32.67-.65,1.34-.88,2,.24-.68.57-1.37.9-2.06,1.97-7.62,6.35-12.75,13.42-6.97,13.44,8.2,26.24,10.35,32.62,19.11.33,3.29.15,6.7-2.41,8.68-10.71,4.65-27.8.18-41.11,1.4ZM398.6,298.75c-6.27.87-18.47-1.37-22.79,2.46-37.86,112.69-196.63,124.38-243.36,12.23v.03c-.14-.46-.66-.81-.57-1.29-3.9-23.58-34.07-3.32-39.19-19.86-3.14-20.33,34.9-5.9,46.18-13.77h-.03c12.84-7.48,9.59-21.65,11.28-33.16,6.38-40.61,47.53-79.57,88.51-83.73,2.94-.3,3.32.46,3.29,3.16-.14,18.21-.07,36.42-.16,54.63,0,1.05-.71,2.76-1.49,3.04-28.62,10.22-38.08,23.11-39.34,53.62-.04,1.04-.92,2.57-1.82,2.98-15.51,6.85-18.38,29.5-5.79,41.05h0c4.23,2.87,9.46,4.28,14.4,5.39,6.98-.88,14.37-1.26,19.53-6.7,13.18-15.58,7.59-30-7.53-41.8-4.2-26.34,26.6-47.18,48.63-30.86,10.54,7.07,16.16,20.19,12.63,32.24-26.56,15.26-13.4,50.65,15.22,46.95,22.69-5.3,26.91-35.14,5.82-46.55-4.11-29.84-9.52-45.97-40.28-56.09-.73-.25-1.52-1.6-1.53-2.44-.08-18.94-.02-37.89-.09-56.83,0-2.09.6-2.3,2.51-2.06,48.75,6.07,88.62,50.49,89.12,99.47-.07,7.01,3.07,13.15,8.31,17.63,9.82,3.49,20.04,2.81,30.29,2.8,7.6.18,20.29-2.17,19.99,8.79.15,6.99-5.35,9.26-11.77,8.68Z"/>
        <path class="cls-2" d="M184.72,103.05c-.09,0-.07,0,0,0h0Z"/>
        <polygon class="cls-2" points="302.57 155.95 302.57 155.95 302.57 155.95 302.57 155.95"/>
        <path class="cls-2" d="M90.75,206.47s-.01.04-.02.06c.15-.32.31-.64.45-.96-.14.3-.29.6-.44.9Z"/>
        <path class="cls-2" d="M184.82,103.04s-.08,0-.11,0c.03,0,.06,0,.11,0Z"/>
        <path class="cls-2" d="M184.93,103.03s-.07,0-.11,0c.03,0,.07,0,.11,0Z"/>
      </g>
    </g>
  </g>
</svg>